<svg width="111" height="78" viewBox="0 0 111 78" fill="none" xmlns="http://www.w3.org/2000/svg">
<path d="M51.6584 39.0531C51.6584 45.1374 51.1891 50.585 50.2505 55.3959C49.3841 60.2068 47.904 64.3102 45.8103 67.7061C43.7165 71.0313 41.0451 73.5782 37.7962 75.3469C34.5472 77.1156 30.5402 78 25.775 78C19.8547 78 14.9813 76.4435 11.1547 73.3306C7.3282 70.2177 4.51244 65.7605 2.70746 59.9592C0.902487 54.1578 0 47.1891 0 39.0531C0 30.8463 0.830288 23.8422 2.49086 18.0408C4.15144 12.2395 6.8589 7.78231 10.6133 4.66938C14.4398 1.55646 19.4937 0 25.775 0C31.6954 0 36.5688 1.55646 40.3953 4.66938C44.2219 7.71156 47.0376 12.1687 48.8426 18.0408C50.7198 23.8422 51.6584 30.8463 51.6584 39.0531ZM17.4361 39.0531C17.4361 44.7837 17.6527 49.5946 18.0858 53.4857C18.5912 57.3061 19.4576 60.2068 20.685 62.1878C21.9124 64.098 23.6091 65.0531 25.775 65.0531C27.941 65.0531 29.6016 64.098 30.7568 62.1878C31.9841 60.2775 32.8505 57.4122 33.3559 53.5918C33.9335 49.7007 34.2223 44.8544 34.2223 39.0531C34.2223 33.2517 33.9335 28.4408 33.3559 24.6204C32.8505 20.7292 31.9841 17.8286 30.7568 15.9184C29.6016 13.9374 27.941 12.9469 25.775 12.9469C23.6091 12.9469 21.9124 13.9374 20.685 15.9184C19.4576 17.8286 18.5912 20.7292 18.0858 24.6204C17.6527 28.4408 17.4361 33.2517 17.4361 39.0531Z" fill="#A3B1F9"/>
<path d="M66.2727 76.9388L92.3727 14.6449H58.6918V1.16734H111V11.249L84.4669 76.9388H66.2727Z" fill="#A3B1F9"/>
</svg>
