<svg width="111" height="78" viewBox="0 0 111 78" fill="none" xmlns="http://www.w3.org/2000/svg">
<path d="M51.81 39.0531C51.81 45.1374 51.3393 50.585 50.398 55.3959C49.5291 60.2068 48.0446 64.3102 45.9447 67.7061C43.8448 71.0313 41.1656 73.5782 37.9071 75.3469C34.6486 77.1156 30.6298 78 25.8507 78C19.913 78 15.0253 76.4435 11.1875 73.3306C7.34971 70.2177 4.52568 65.7605 2.71541 59.9592C0.905137 54.1578 0 47.1891 0 39.0531C0 30.8463 0.832726 23.8422 2.49818 18.0408C4.16363 12.2395 6.87904 7.78231 10.6444 4.66938C14.4822 1.55646 19.5509 0 25.8507 0C31.7884 0 36.6761 1.55646 40.5139 4.66938C44.3517 7.71156 47.1757 12.1687 48.986 18.0408C50.8687 23.8422 51.81 30.8463 51.81 39.0531ZM17.4872 39.0531C17.4872 44.7837 17.7045 49.5946 18.1389 53.4857C18.6458 57.3061 19.5147 60.2068 20.7457 62.1878C21.9767 64.098 23.6784 65.0531 25.8507 65.0531C28.023 65.0531 29.6885 64.098 30.847 62.1878C32.078 60.2776 32.947 57.4122 33.4538 53.5918C34.0331 49.7007 34.3228 44.8544 34.3228 39.0531C34.3228 33.2517 34.0331 28.4408 33.4538 24.6204C32.947 20.7292 32.078 17.8286 30.847 15.9184C29.6885 13.9374 28.023 12.9469 25.8507 12.9469C23.6784 12.9469 21.9767 13.9374 20.7457 15.9184C19.5147 17.8286 18.6458 20.7292 18.1389 24.6204C17.7045 28.4408 17.4872 33.2517 17.4872 39.0531Z" fill="#A3B1F9"/>
<path d="M111 76.9388H59.0814V65.7959L77.1117 46.5878C80.8046 42.6259 83.7011 39.3361 85.801 36.7184C87.9733 34.0299 89.4939 31.6245 90.3629 29.502C91.3042 27.3088 91.7749 24.9741 91.7749 22.498C91.7749 19.4558 91.0146 17.1918 89.4939 15.7061C88.0457 14.2204 86.163 13.4775 83.8459 13.4775C81.3115 13.4775 78.7771 14.1497 76.2428 15.4939C73.7808 16.8381 71.0654 18.7483 68.0965 21.2245L58.5383 10.9306C60.7106 9.0204 62.9916 7.2517 65.3811 5.62449C67.7707 3.99728 70.5947 2.68843 73.8532 1.69796C77.1117 0.636733 81.0219 0.106121 85.5838 0.106121C90.4353 0.106121 94.6351 1.02585 98.1833 2.86531C101.731 4.63401 104.447 7.07483 106.329 10.1878C108.285 13.2299 109.262 16.6966 109.262 20.5878C109.262 23.7714 108.791 26.6721 107.85 29.2898C106.909 31.9075 105.533 34.4898 103.723 37.0367C101.985 39.5837 99.8849 42.2367 97.4229 44.9959C94.961 47.6843 92.2094 50.7265 89.1681 54.1224L81.3477 62.7184L81.2391 63.4612H111V76.9388Z" fill="#A3B1F9"/>
</svg>
