<svg width="111" height="78" viewBox="0 0 111 78" fill="none" xmlns="http://www.w3.org/2000/svg">
<path d="M52.0648 39.0531C52.0648 45.1374 51.5918 50.585 50.6458 55.3959C49.7726 60.2068 48.2809 64.3102 46.1706 67.7061C44.0604 71.0313 41.368 73.5782 38.0935 75.3469C34.819 77.1156 30.7804 78 25.9778 78C20.0109 78 15.0991 76.4435 11.2425 73.3306C7.38584 70.2177 4.54793 65.7605 2.72876 59.9592C0.909587 54.1578 0 47.1891 0 39.0531C0 30.8463 0.83682 23.8422 2.51046 18.0408C4.1841 12.2395 6.91286 7.78231 10.6967 4.66938C14.5534 1.55646 19.6471 0 25.9778 0C31.9447 0 36.8565 1.55646 40.7131 4.66938C44.5698 7.71156 47.4077 12.1687 49.2268 18.0408C51.1188 23.8422 52.0648 30.8463 52.0648 39.0531ZM17.5732 39.0531C17.5732 44.7837 17.7915 49.5946 18.2281 53.4857C18.7375 57.3061 19.6107 60.2068 20.8477 62.1878C22.0848 64.098 23.7948 65.0531 25.9778 65.0531C28.1608 65.0531 29.8344 64.098 30.9987 62.1878C32.2358 60.2775 33.109 57.4122 33.6183 53.5918C34.2005 49.7007 34.4915 44.8544 34.4915 39.0531C34.4915 33.2517 34.2005 28.4408 33.6183 24.6204C33.109 20.7292 32.2358 17.8286 30.9987 15.9184C29.8344 13.9374 28.1608 12.9469 25.9778 12.9469C23.7948 12.9469 22.0848 13.9374 20.8477 15.9184C19.6107 17.8286 18.7375 20.7292 18.2281 24.6204C17.7915 28.4408 17.5732 33.2517 17.5732 39.0531Z" fill="#A3B1F9"/>
<path d="M108.926 18.1469C108.926 21.6136 108.198 24.6204 106.743 27.1673C105.288 29.7143 103.359 31.8014 100.958 33.4286C98.5568 35.0558 95.8645 36.2585 92.881 37.0367V37.3551C98.7024 38.0626 103.178 39.902 106.307 42.8735C109.436 45.8449 111 49.8422 111 54.8653C111 59.2517 109.945 63.2136 107.835 66.751C105.724 70.2177 102.45 72.9769 98.0111 75.0286C93.6451 77.0095 87.9693 78 80.9836 78C76.6176 78 72.7246 77.6463 69.3045 76.9388C65.8845 76.2313 62.61 75.2054 59.481 73.8612V60.2775C62.6827 61.9048 65.9573 63.1429 69.3045 63.9918C72.7246 64.8408 75.8536 65.2653 78.6915 65.2653C83.8579 65.2653 87.4235 64.2748 89.3882 62.2939C91.4257 60.3129 92.4444 57.5184 92.4444 53.9102C92.4444 51.7878 91.9714 50.019 91.0255 48.6041C90.0795 47.1184 88.4059 46.0218 86.0046 45.3143C83.676 44.5361 80.2924 44.1469 75.8536 44.1469H70.8326V31.8367H75.9627C80.1104 31.8367 83.3122 31.4122 85.5679 30.5633C87.8237 29.6435 89.3882 28.4408 90.2614 26.9551C91.2074 25.3986 91.6804 23.6299 91.6804 21.649C91.6804 18.9605 90.9163 16.8735 89.3882 15.3878C87.8601 13.8313 85.5316 13.0531 82.4026 13.0531C80.1468 13.0531 78.0366 13.3714 76.0719 14.0082C74.1072 14.5741 72.3607 15.2816 70.8326 16.1306C69.3773 16.9796 68.1767 17.7932 67.2307 18.5714L59.5901 7.53469C61.5549 6.11973 63.7015 4.84626 66.03 3.71428C68.4313 2.58231 71.1237 1.69796 74.1072 1.06122C77.1634 0.424489 80.6198 0.106121 84.4764 0.106121C92.0442 0.106121 98.0111 1.69796 102.377 4.88163C106.743 7.99456 108.926 12.4163 108.926 18.1469Z" fill="#A3B1F9"/>
</svg>
