<svg width="210" height="64" viewBox="0 0 210 64" fill="none" xmlns="http://www.w3.org/2000/svg">
<path d="M31.718 63H17.7V27.482C17.7 26.5073 17.7 25.3033 17.7 23.87C17.7573 22.4367 17.786 20.946 17.786 19.398C17.8433 17.85 17.9007 16.474 17.958 15.27C17.4993 15.614 16.8973 16.2447 16.152 17.162C15.464 18.0793 14.7473 18.8533 14.002 19.484L7.55201 25.16L0.500008 17.334L19.678 1.596H31.718V63ZM87.0973 32.298C87.0973 37.2287 86.7246 41.6433 85.9793 45.542C85.2913 49.4407 84.116 52.766 82.4533 55.518C80.7906 58.2127 78.6693 60.2767 76.0893 61.71C73.5093 63.1433 70.3273 63.86 66.5433 63.86C61.842 63.86 57.972 62.5987 54.9333 60.076C51.8946 57.5533 49.6586 53.9413 48.2253 49.24C46.792 44.5387 46.0753 38.8913 46.0753 32.298C46.0753 25.6473 46.7346 19.9713 48.0533 15.27C49.372 10.5687 51.522 6.95666 54.5033 4.434C57.542 1.91133 61.5553 0.649998 66.5433 0.649998C71.2446 0.649998 75.1146 1.91133 78.1533 4.434C81.192 6.89933 83.428 10.5113 84.8613 15.27C86.352 19.9713 87.0973 25.6473 87.0973 32.298ZM59.9213 32.298C59.9213 36.942 60.0933 40.8407 60.4373 43.994C60.8386 47.09 61.5266 49.4407 62.5013 51.046C63.476 52.594 64.8233 53.368 66.5433 53.368C68.2633 53.368 69.582 52.594 70.4993 51.046C71.474 49.498 72.162 47.176 72.5633 44.08C73.022 40.9267 73.2513 36.9993 73.2513 32.298C73.2513 27.5967 73.022 23.698 72.5633 20.602C72.162 17.4487 71.474 15.098 70.4993 13.55C69.582 11.9447 68.2633 11.142 66.5433 11.142C64.8233 11.142 63.476 11.9447 62.5013 13.55C61.5266 15.098 60.8386 17.4487 60.4373 20.602C60.0933 23.698 59.9213 27.5967 59.9213 32.298ZM133.877 32.298C133.877 37.2287 133.504 41.6433 132.759 45.542C132.071 49.4407 130.895 52.766 129.233 55.518C127.57 58.2127 125.449 60.2767 122.869 61.71C120.289 63.1433 117.107 63.86 113.323 63.86C108.621 63.86 104.751 62.5987 101.713 60.076C98.6739 57.5533 96.4379 53.9413 95.0046 49.24C93.5713 44.5387 92.8546 38.8913 92.8546 32.298C92.8546 25.6473 93.5139 19.9713 94.8326 15.27C96.1513 10.5687 98.3013 6.95666 101.283 4.434C104.321 1.91133 108.335 0.649998 113.323 0.649998C118.024 0.649998 121.894 1.91133 124.933 4.434C127.971 6.89933 130.207 10.5113 131.641 15.27C133.131 19.9713 133.877 25.6473 133.877 32.298ZM106.701 32.298C106.701 36.942 106.873 40.8407 107.217 43.994C107.618 47.09 108.306 49.4407 109.281 51.046C110.255 52.594 111.603 53.368 113.323 53.368C115.043 53.368 116.361 52.594 117.279 51.046C118.253 49.498 118.941 47.176 119.343 44.08C119.801 40.9267 120.031 36.9993 120.031 32.298C120.031 27.5967 119.801 23.698 119.343 20.602C118.941 17.4487 118.253 15.098 117.279 13.55C116.361 11.9447 115.043 11.142 113.323 11.142C111.603 11.142 110.255 11.9447 109.281 13.55C108.306 15.098 107.618 17.4487 107.217 20.602C106.873 23.698 106.701 27.5967 106.701 32.298ZM152.878 0.735997C157.465 0.735997 161.019 2.42733 163.542 5.81C166.065 9.13533 167.326 13.8367 167.326 19.914C167.326 25.9913 166.122 30.75 163.714 34.19C161.363 37.5727 157.751 39.264 152.878 39.264C149.954 39.264 147.431 38.49 145.31 36.942C143.246 35.394 141.641 33.1867 140.494 30.32C139.347 27.396 138.774 23.9273 138.774 19.914C138.774 13.8367 139.921 9.13533 142.214 5.81C144.565 2.42733 148.119 0.735997 152.878 0.735997ZM153.05 9.508C151.846 9.508 150.986 10.368 150.47 12.088C149.954 13.808 149.696 16.4453 149.696 20C149.696 23.4973 149.954 26.1347 150.47 27.912C150.986 29.6893 151.817 30.578 152.964 30.578C154.225 30.578 155.114 29.6893 155.63 27.912C156.146 26.1347 156.404 23.4973 156.404 20C156.404 16.4453 156.146 13.808 155.63 12.088C155.114 10.368 154.254 9.508 153.05 9.508ZM195.276 1.596L163.284 63H152.706L184.698 1.596H195.276ZM195.104 25.246C198.143 25.246 200.723 26.02 202.844 27.568C204.965 29.0587 206.599 31.2373 207.746 34.104C208.893 36.9133 209.466 40.3533 209.466 44.424C209.466 50.5013 208.262 55.26 205.854 58.7C203.503 62.0827 199.92 63.774 195.104 63.774C192.18 63.774 189.657 63 187.536 61.452C185.415 59.904 183.781 57.6967 182.634 54.83C181.487 51.906 180.914 48.4373 180.914 44.424C180.914 38.3467 182.089 33.6453 184.44 30.32C186.848 26.9373 190.403 25.246 195.104 25.246ZM195.19 34.018C193.986 34.018 193.126 34.878 192.61 36.598C192.094 38.318 191.836 40.9553 191.836 44.51C191.836 48.0073 192.094 50.6447 192.61 52.422C193.126 54.1993 193.986 55.088 195.19 55.088C196.394 55.088 197.254 54.228 197.77 52.508C198.343 50.7307 198.63 48.0647 198.63 44.51C198.63 40.9553 198.343 38.318 197.77 36.598C197.197 34.878 196.337 34.018 195.19 34.018Z" fill="url(#paint0_linear_205_696)"/>
<defs>
<linearGradient id="paint0_linear_205_696" x1="57.5" y1="30" x2="131" y2="30" gradientUnits="userSpaceOnUse">
<stop stop-color="#4C53F4"/>
<stop offset="1" stop-color="#4F75FA"/>
</linearGradient>
</defs>
</svg>
