<svg width="227" height="64" viewBox="0 0 227 64" fill="none" xmlns="http://www.w3.org/2000/svg">
<path d="M32.1477 63H18.1297V27.482C18.1297 26.5073 18.1297 25.3033 18.1297 23.87C18.187 22.4367 18.2157 20.946 18.2157 19.398C18.273 17.85 18.3304 16.474 18.3877 15.27C17.929 15.614 17.327 16.2447 16.5817 17.162C15.8937 18.0793 15.177 18.8533 14.4317 19.484L7.9817 25.16L0.929695 17.334L20.1077 1.596H32.1477V63ZM87.527 32.298C87.527 37.2287 87.1543 41.6433 86.409 45.542C85.721 49.4407 84.5457 52.766 82.883 55.518C81.2203 58.2127 79.099 60.2767 76.519 61.71C73.939 63.1433 70.757 63.86 66.973 63.86C62.2717 63.86 58.4017 62.5987 55.363 60.076C52.3243 57.5533 50.0883 53.9413 48.655 49.24C47.2217 44.5387 46.505 38.8913 46.505 32.298C46.505 25.6473 47.1643 19.9713 48.483 15.27C49.8017 10.5687 51.9517 6.95666 54.933 4.434C57.9717 1.91133 61.985 0.649998 66.973 0.649998C71.6743 0.649998 75.5443 1.91133 78.583 4.434C81.6217 6.89933 83.8577 10.5113 85.291 15.27C86.7817 19.9713 87.527 25.6473 87.527 32.298ZM60.351 32.298C60.351 36.942 60.523 40.8407 60.867 43.994C61.2683 47.09 61.9563 49.4407 62.931 51.046C63.9057 52.594 65.253 53.368 66.973 53.368C68.693 53.368 70.0117 52.594 70.929 51.046C71.9037 49.498 72.5917 47.176 72.993 44.08C73.4517 40.9267 73.681 36.9993 73.681 32.298C73.681 27.5967 73.4517 23.698 72.993 20.602C72.5917 17.4487 71.9037 15.098 70.929 13.55C70.0117 11.9447 68.693 11.142 66.973 11.142C65.253 11.142 63.9057 11.9447 62.931 13.55C61.9563 15.098 61.2683 17.4487 60.867 20.602C60.523 23.698 60.351 27.5967 60.351 32.298ZM134.306 32.298C134.306 37.2287 133.934 41.6433 133.188 45.542C132.5 49.4407 131.325 52.766 129.662 55.518C128 58.2127 125.878 60.2767 123.298 61.71C120.718 63.1433 117.536 63.86 113.752 63.86C109.051 63.86 105.181 62.5987 102.142 60.076C99.1036 57.5533 96.8676 53.9413 95.4343 49.24C94.001 44.5387 93.2843 38.8913 93.2843 32.298C93.2843 25.6473 93.9436 19.9713 95.2623 15.27C96.581 10.5687 98.731 6.95666 101.712 4.434C104.751 1.91133 108.764 0.649998 113.752 0.649998C118.454 0.649998 122.324 1.91133 125.362 4.434C128.401 6.89933 130.637 10.5113 132.07 15.27C133.561 19.9713 134.306 25.6473 134.306 32.298ZM107.13 32.298C107.13 36.942 107.302 40.8407 107.646 43.994C108.048 47.09 108.736 49.4407 109.71 51.046C110.685 52.594 112.032 53.368 113.752 53.368C115.472 53.368 116.791 52.594 117.708 51.046C118.683 49.498 119.371 47.176 119.772 44.08C120.231 40.9267 120.46 36.9993 120.46 32.298C120.46 27.5967 120.231 23.698 119.772 20.602C119.371 17.4487 118.683 15.098 117.708 13.55C116.791 11.9447 115.472 11.142 113.752 11.142C112.032 11.142 110.685 11.9447 109.71 13.55C108.736 15.098 108.048 17.4487 107.646 20.602C107.302 23.698 107.13 27.5967 107.13 32.298ZM181.086 32.298C181.086 37.2287 180.713 41.6433 179.968 45.542C179.28 49.4407 178.104 52.766 176.442 55.518C174.779 58.2127 172.658 60.2767 170.078 61.71C167.498 63.1433 164.316 63.86 160.532 63.86C155.83 63.86 151.96 62.5987 148.922 60.076C145.883 57.5533 143.647 53.9413 142.214 49.24C140.78 44.5387 140.064 38.8913 140.064 32.298C140.064 25.6473 140.723 19.9713 142.042 15.27C143.36 10.5687 145.51 6.95666 148.492 4.434C151.53 1.91133 155.544 0.649998 160.532 0.649998C165.233 0.649998 169.103 1.91133 172.142 4.434C175.18 6.89933 177.416 10.5113 178.85 15.27C180.34 19.9713 181.086 25.6473 181.086 32.298ZM153.91 32.298C153.91 36.942 154.082 40.8407 154.426 43.994C154.827 47.09 155.515 49.4407 156.49 51.046C157.464 52.594 158.812 53.368 160.532 53.368C162.252 53.368 163.57 52.594 164.488 51.046C165.462 49.498 166.15 47.176 166.552 44.08C167.01 40.9267 167.24 36.9993 167.24 32.298C167.24 27.5967 167.01 23.698 166.552 20.602C166.15 17.4487 165.462 15.098 164.488 13.55C163.57 11.9447 162.252 11.142 160.532 11.142C158.812 11.142 157.464 11.9447 156.49 13.55C155.515 15.098 154.827 17.4487 154.426 20.602C154.082 23.698 153.91 27.5967 153.91 32.298ZM211.783 28.084H226.833V37.286H211.783V53.454H202.151V37.286H187.187V28.084H202.151V11.744H211.783V28.084Z" fill="url(#paint0_linear_205_686)"/>
<defs>
<linearGradient id="paint0_linear_205_686" x1="51" y1="30" x2="127" y2="30" gradientUnits="userSpaceOnUse">
<stop stop-color="#4C53F4"/>
<stop offset="1" stop-color="#4F75FA"/>
</linearGradient>
</defs>
</svg>
