<svg width="135" height="64" viewBox="0 0 135 64" fill="none" xmlns="http://www.w3.org/2000/svg">
<path d="M41.613 63H0.504992V53.97L14.781 38.404C17.705 35.1933 19.9983 32.5273 21.661 30.406C23.381 28.2273 24.585 26.278 25.273 24.558C26.0183 22.7807 26.391 20.8887 26.391 18.882C26.391 16.4167 25.789 14.582 24.585 13.378C23.4383 12.174 21.9477 11.572 20.113 11.572C18.1063 11.572 16.0997 12.1167 14.093 13.206C12.1437 14.2953 9.99366 15.8433 7.64299 17.85L0.0749923 9.508C1.79499 7.96 3.60099 6.52666 5.49299 5.208C7.38499 3.88933 9.62099 2.82866 12.201 2.026C14.781 1.166 17.877 0.735997 21.489 0.735997C25.3303 0.735997 28.6557 1.48133 31.465 2.972C34.2743 4.40533 36.4243 6.38333 37.915 8.906C39.463 11.3713 40.237 14.1807 40.237 17.334C40.237 19.914 39.8643 22.2647 39.119 24.386C38.3737 26.5073 37.2843 28.6 35.851 30.664C34.475 32.728 32.8123 34.878 30.863 37.114C28.9137 39.2927 26.735 41.758 24.327 44.51L18.135 51.476L18.049 52.078H41.613V63ZM88.3063 32.298C88.3063 37.2287 87.9336 41.6433 87.1883 45.542C86.5003 49.4407 85.325 52.766 83.6623 55.518C81.9996 58.2127 79.8783 60.2767 77.2983 61.71C74.7183 63.1433 71.5363 63.86 67.7523 63.86C63.051 63.86 59.181 62.5987 56.1423 60.076C53.1036 57.5533 50.8676 53.9413 49.4343 49.24C48.001 44.5387 47.2843 38.8913 47.2843 32.298C47.2843 25.6473 47.9436 19.9713 49.2623 15.27C50.581 10.5687 52.731 6.95666 55.7123 4.434C58.751 1.91133 62.7643 0.649998 67.7523 0.649998C72.4536 0.649998 76.3236 1.91133 79.3623 4.434C82.401 6.89933 84.637 10.5113 86.0703 15.27C87.561 19.9713 88.3063 25.6473 88.3063 32.298ZM61.1303 32.298C61.1303 36.942 61.3023 40.8407 61.6463 43.994C62.0476 47.09 62.7356 49.4407 63.7103 51.046C64.685 52.594 66.0323 53.368 67.7523 53.368C69.4723 53.368 70.791 52.594 71.7083 51.046C72.683 49.498 73.371 47.176 73.7723 44.08C74.231 40.9267 74.4603 36.9993 74.4603 32.298C74.4603 27.5967 74.231 23.698 73.7723 20.602C73.371 17.4487 72.683 15.098 71.7083 13.55C70.791 11.9447 69.4723 11.142 67.7523 11.142C66.0323 11.142 64.685 11.9447 63.7103 13.55C62.7356 15.098 62.0476 17.4487 61.6463 20.602C61.3023 23.698 61.1303 27.5967 61.1303 32.298ZM119.004 28.084H134.054V37.286H119.004V53.454H109.372V37.286H94.4076V28.084H109.372V11.744H119.004V28.084Z" fill="url(#paint0_linear_205_691)"/>
<defs>
<linearGradient id="paint0_linear_205_691" x1="23" y1="30" x2="108.5" y2="30" gradientUnits="userSpaceOnUse">
<stop stop-color="#4C53F4"/>
<stop offset="1" stop-color="#4F75FA"/>
</linearGradient>
</defs>
</svg>
