<svg width="182" height="64" viewBox="0 0 182 64" fill="none" xmlns="http://www.w3.org/2000/svg">
<path d="M6.96334 63L27.6893 12.518H0.943344V1.596H42.4813V9.766L21.4113 63H6.96334ZM68.5346 0.821996C72.0893 0.821996 75.2713 1.36666 78.0806 2.456C80.9473 3.54533 83.212 5.17933 84.8746 7.358C86.5373 9.53666 87.3686 12.2887 87.3686 15.614C87.3686 18.0793 86.91 20.258 85.9926 22.15C85.1326 23.9847 83.9286 25.59 82.3806 26.966C80.89 28.342 79.17 29.546 77.2206 30.578C79.17 31.7247 81.0333 33.072 82.8106 34.62C84.6453 36.1107 86.136 37.888 87.2826 39.952C88.4866 41.9587 89.0886 44.338 89.0886 47.09C89.0886 50.4727 88.286 53.4253 86.6806 55.948C85.0753 58.4707 82.7246 60.42 79.6286 61.796C76.59 63.172 72.8633 63.86 68.4486 63.86C63.862 63.86 60.0206 63.2007 56.9246 61.882C53.886 60.5633 51.5926 58.6713 50.0446 56.206C48.554 53.7407 47.8086 50.8167 47.8086 47.434C47.8086 44.6247 48.2673 42.188 49.1846 40.124C50.1593 38.06 51.478 36.2827 53.1406 34.792C54.8033 33.244 56.638 31.954 58.6446 30.922C56.982 29.7753 55.434 28.4853 54.0006 27.052C52.6246 25.5613 51.5353 23.8987 50.7326 22.064C49.93 20.172 49.5286 17.9933 49.5286 15.528C49.5286 12.26 50.36 9.53666 52.0226 7.358C53.7426 5.17933 56.036 3.54533 58.9026 2.456C61.8266 1.36666 65.0373 0.821996 68.5346 0.821996ZM60.6226 46.66C60.6226 48.896 61.282 50.7307 62.6006 52.164C63.9193 53.5973 65.8113 54.314 68.2766 54.314C70.1113 54.314 71.602 53.9987 72.7486 53.368C73.9526 52.7373 74.8413 51.8487 75.4146 50.702C75.988 49.5553 76.2746 48.2367 76.2746 46.746C76.2746 45.198 75.902 43.822 75.1566 42.618C74.4113 41.414 73.494 40.3533 72.4046 39.436C71.3153 38.4613 70.226 37.63 69.1366 36.942L68.1046 36.254C66.6713 37.0567 65.3813 37.974 64.2346 39.006C63.1453 40.038 62.2566 41.1847 61.5686 42.446C60.938 43.65 60.6226 45.0547 60.6226 46.66ZM68.4486 10.282C66.8433 10.282 65.4673 10.8267 64.3206 11.916C63.174 13.0053 62.6006 14.5533 62.6006 16.56C62.6006 17.936 62.8586 19.1687 63.3746 20.258C63.948 21.29 64.6646 22.2073 65.5246 23.01C66.442 23.7553 67.4166 24.472 68.4486 25.16C69.4233 24.5293 70.3406 23.8413 71.2006 23.096C72.118 22.3507 72.8633 21.462 73.4366 20.43C74.01 19.3407 74.2966 18.0507 74.2966 16.56C74.2966 14.5533 73.7233 13.0053 72.5766 11.916C71.4873 10.8267 70.1113 10.282 68.4486 10.282ZM135.696 32.298C135.696 37.2287 135.323 41.6433 134.578 45.542C133.89 49.4407 132.715 52.766 131.052 55.518C129.389 58.2127 127.268 60.2767 124.688 61.71C122.108 63.1433 118.926 63.86 115.142 63.86C110.441 63.86 106.571 62.5987 103.532 60.076C100.493 57.5533 98.2573 53.9413 96.8239 49.24C95.3906 44.5387 94.6739 38.8913 94.6739 32.298C94.6739 25.6473 95.3333 19.9713 96.6519 15.27C97.9706 10.5687 100.121 6.95666 103.102 4.434C106.141 1.91133 110.154 0.649998 115.142 0.649998C119.843 0.649998 123.713 1.91133 126.752 4.434C129.791 6.89933 132.027 10.5113 133.46 15.27C134.951 19.9713 135.696 25.6473 135.696 32.298ZM108.52 32.298C108.52 36.942 108.692 40.8407 109.036 43.994C109.437 47.09 110.125 49.4407 111.1 51.046C112.075 52.594 113.422 53.368 115.142 53.368C116.862 53.368 118.181 52.594 119.098 51.046C120.073 49.498 120.761 47.176 121.162 44.08C121.621 40.9267 121.85 36.9993 121.85 32.298C121.85 27.5967 121.621 23.698 121.162 20.602C120.761 17.4487 120.073 15.098 119.098 13.55C118.181 11.9447 116.862 11.142 115.142 11.142C113.422 11.142 112.075 11.9447 111.1 13.55C110.125 15.098 109.437 17.4487 109.036 20.602C108.692 23.698 108.52 27.5967 108.52 32.298ZM166.393 28.084H181.443V37.286H166.393V53.454H156.761V37.286H141.797V28.084H156.761V11.744H166.393V28.084Z" fill="url(#paint0_linear_205_701)"/>
<defs>
<linearGradient id="paint0_linear_205_701" x1="45" y1="30" x2="134.5" y2="30" gradientUnits="userSpaceOnUse">
<stop stop-color="#4C53F4"/>
<stop offset="1" stop-color="#4F75FA"/>
</linearGradient>
</defs>
</svg>
