<svg width="24" height="25" viewBox="0 0 24 25" fill="none" xmlns="http://www.w3.org/2000/svg">
<path d="M18.6254 12.2125C18.6254 12.3125 18.6254 12.4125 18.5254 12.5125C18.5254 12.6125 18.4254 12.7125 18.3254 12.7125L13.3254 17.7125C13.0254 18.0125 12.5254 18.0125 12.2254 17.7125C11.9254 17.4125 11.9254 16.9125 12.2254 16.6125L15.9254 12.9125H5.82539C5.42539 12.9125 5.02539 12.6125 5.02539 12.1125C5.02539 11.6125 5.32539 11.3125 5.82539 11.3125H16.0254L12.3254 7.61249C12.0254 7.31249 12.0254 6.8125 12.3254 6.5125C12.6254 6.2125 13.1254 6.2125 13.4254 6.5125L18.4254 11.5125C18.5254 11.6125 18.5254 11.7125 18.6254 11.7125C18.5254 12.0125 18.6254 12.1125 18.6254 12.2125Z" fill="white"/>
</svg>
