<svg width="25" height="20" viewBox="0 0 25 20" fill="none" xmlns="http://www.w3.org/2000/svg">
<path d="M23.3697 19.0667H2.03638C1.50304 19.0667 0.969727 18.6667 0.969727 18C0.969727 17.3333 1.36971 16.9333 2.03638 16.9333H23.3697C23.903 16.9333 24.4364 17.3333 24.4364 18C24.4364 18.6667 23.903 19.0667 23.3697 19.0667ZM23.3697 11.0667H2.03638C1.50304 11.0667 0.969727 10.6667 0.969727 9.99998C0.969727 9.33332 1.36971 8.93331 2.03638 8.93331H23.3697C23.903 8.93331 24.4364 9.33332 24.4364 9.99998C24.4364 10.6667 23.903 11.0667 23.3697 11.0667ZM23.3697 3.06666H2.03638C1.50304 3.06666 0.969727 2.66665 0.969727 1.99998C0.969727 1.33332 1.36971 0.933319 2.03638 0.933319H23.3697C23.903 0.933319 24.4364 1.33332 24.4364 1.99998C24.4364 2.66665 23.903 3.06666 23.3697 3.06666Z" fill="#313239"/>
</svg>
