<svg width="22" height="22" viewBox="0 0 22 22" fill="none" xmlns="http://www.w3.org/2000/svg">
<path d="M21.3451 7.01096C21.2944 5.88578 21.1126 5.11591 20.8547 4.44333C20.5841 3.74961 20.2248 3.1574 19.6372 2.57366C19.0496 1.98991 18.4619 1.6219 17.7686 1.3554C17.0965 1.09314 16.3271 0.915481 15.2025 0.86472C14.0738 0.81396 13.7145 0.80127 10.8482 0.80127C7.97774 0.80127 7.6184 0.81396 6.49389 0.86472C5.36937 0.915481 4.59997 1.09737 3.9278 1.3554C3.23026 1.62613 2.63841 1.98568 2.05501 2.57366C1.47162 3.16163 1.10383 3.74961 0.837494 4.44333C0.579616 5.11591 0.397834 5.88578 0.347104 7.01096C0.296374 8.14039 0.283691 8.49994 0.283691 11.3679C0.283691 14.2401 0.296374 14.5997 0.347104 15.7248C0.397834 16.85 0.579616 17.6199 0.837494 18.2925C1.10805 18.9862 1.46739 19.5784 2.05501 20.1622C2.63841 20.7501 3.23026 21.1139 3.92357 21.3804C4.59574 21.6427 5.36515 21.8203 6.48966 21.8711C7.6184 21.9218 7.97774 21.9345 10.844 21.9345C13.7145 21.9345 14.0738 21.9218 15.1983 21.8711C16.3228 21.8203 17.0922 21.6384 17.7644 21.3804C18.4577 21.1097 19.0496 20.7501 19.633 20.1622C20.2163 19.5742 20.5841 18.9862 20.8505 18.2925C21.1126 17.6199 21.2901 16.85 21.3409 15.7248C21.3916 14.5954 21.4043 14.2359 21.4043 11.3679C21.4043 8.49994 21.3958 8.13616 21.3451 7.01096ZM19.4469 15.6402C19.4004 16.6724 19.2271 17.235 19.0834 17.603C18.8931 18.0937 18.6606 18.449 18.2886 18.8212C17.9166 19.1935 17.5657 19.4177 17.0711 19.6165C16.6991 19.7603 16.1368 19.9337 15.1095 19.9803C13.9977 20.031 13.6637 20.0437 10.8398 20.0437C8.01579 20.0437 7.68181 20.031 6.56998 19.9803C5.53847 19.9337 4.97621 19.7603 4.60842 19.6165C4.11803 19.4261 3.76292 19.1935 3.3909 18.8212C3.01888 18.449 2.79483 18.0979 2.59613 17.603C2.4524 17.2307 2.27907 16.6681 2.23257 15.6402C2.18184 14.5277 2.16916 14.1936 2.16916 11.3679C2.16916 8.54224 2.18184 8.20807 2.23257 7.09557C2.27907 6.06344 2.4524 5.50084 2.59613 5.13283C2.78637 4.64214 3.01888 4.28682 3.3909 3.91458C3.76292 3.54233 4.11381 3.31814 4.60842 3.11933C4.98044 2.97551 5.5427 2.80208 6.56998 2.75555C7.68181 2.70479 8.01579 2.6921 10.8398 2.6921C13.6637 2.6921 13.9977 2.70479 15.1095 2.75555C16.141 2.80208 16.7033 2.97551 17.0711 3.11933C17.5615 3.30968 17.9166 3.54233 18.2886 3.91458C18.6606 4.28682 18.8847 4.63791 19.0834 5.13283C19.2271 5.50507 19.4004 6.06767 19.4469 7.09557C19.4977 8.20807 19.5104 8.54224 19.5104 11.3679C19.5104 14.1936 19.4934 14.5277 19.4469 15.6402Z" fill="url(#paint0_linear_2274_9)"/>
<path d="M10.8397 5.93652C7.83821 5.93652 5.41162 8.36879 5.41162 11.3679C5.41162 14.3712 7.84243 16.7993 10.8397 16.7993C13.837 16.7993 16.2678 14.3628 16.2678 11.3679C16.2678 8.36456 13.8413 5.93652 10.8397 5.93652ZM10.8397 14.8915C8.89508 14.8915 7.31822 13.3137 7.31822 11.3679C7.31822 9.42207 8.89508 7.84427 10.8397 7.84427C12.7844 7.84427 14.3612 9.42207 14.3612 11.3679C14.3612 13.3137 12.7844 14.8915 10.8397 14.8915Z" fill="url(#paint1_linear_2274_9)"/>
<path d="M16.4792 6.99408C17.1796 6.99408 17.7474 6.42592 17.7474 5.72507C17.7474 5.02421 17.1796 4.45605 16.4792 4.45605C15.7788 4.45605 15.2109 5.02421 15.2109 5.72507C15.2109 6.42592 15.7788 6.99408 16.4792 6.99408Z" fill="url(#paint2_linear_2274_9)"/>
<path d="M0.270996 11.3679C0.270996 14.2401 0.283679 14.5997 0.334409 15.7248C0.385139 16.85 0.566921 17.6199 0.824798 18.2925C1.09536 18.9862 1.4547 19.5784 2.04232 20.1622C2.62571 20.7459 3.21756 21.1139 3.91087 21.3804C4.58304 21.6427 5.35245 21.8203 6.47696 21.8711C7.60571 21.9218 7.96504 21.9345 10.8313 21.9345C13.7018 21.9345 14.0611 21.9218 15.1856 21.8711C16.3101 21.8203 17.0795 21.6384 17.7517 21.3804C18.445 21.1097 19.0369 20.7501 19.6203 20.1622C20.2037 19.5784 20.5714 18.9862 20.8378 18.2925C21.0999 17.6199 21.2774 16.85 21.3282 15.7248C21.3789 14.5954 21.3916 14.2359 21.3916 11.3679C21.3916 8.49571 21.3789 8.13616 21.3282 7.01096C21.2774 5.88578 21.0957 5.11591 20.8378 4.44333C20.5672 3.74961 20.2079 3.1574 19.6203 2.57366C19.0411 1.98568 18.4492 1.6219 17.7559 1.3554C17.0838 1.09314 16.3144 0.915481 15.1898 0.86472C14.0611 0.81396 13.7018 0.80127 10.8355 0.80127C7.96504 0.80127 7.60571 0.81396 6.48119 0.86472C5.35668 0.915481 4.58727 1.09737 3.9151 1.3554C3.22179 1.62613 2.62994 1.98568 2.04655 2.57366C1.46315 3.16163 1.09536 3.74961 0.829026 4.44333C0.566921 5.11591 0.385139 5.88578 0.334409 7.01096C0.283679 8.13616 0.270996 8.49571 0.270996 11.3679ZM2.1776 11.3679C2.1776 8.54647 2.19028 8.20807 2.24101 7.09557C2.28751 6.06344 2.46084 5.50084 2.60458 5.13283C2.79481 4.64214 3.02733 4.28682 3.39935 3.91458C3.77137 3.54233 4.12225 3.31814 4.61686 3.11933C4.98888 2.97551 5.55114 2.80208 6.57842 2.75555C7.69026 2.70479 8.02423 2.6921 10.8482 2.6921C13.6722 2.6921 14.0061 2.70479 15.118 2.75555C16.1495 2.80208 16.7117 2.97551 17.0795 3.11933C17.5699 3.30968 17.925 3.54233 18.297 3.91458C18.6691 4.28682 18.8931 4.63791 19.0918 5.13283C19.2356 5.50507 19.4089 6.06767 19.4554 7.09557C19.5061 8.20807 19.5188 8.54224 19.5188 11.3679C19.5188 14.1936 19.5061 14.5277 19.4554 15.6402C19.4089 16.6724 19.2356 17.235 19.0918 17.603C18.9016 18.0937 18.6691 18.449 18.297 18.8212C17.925 19.1935 17.5741 19.4177 17.0795 19.6165C16.7075 19.7603 16.1453 19.9337 15.118 19.9803C14.0061 20.031 13.6722 20.0437 10.8482 20.0437C8.02423 20.0437 7.69026 20.031 6.57842 19.9803C5.54691 19.9337 4.98466 19.7603 4.61686 19.6165C4.12648 19.4261 3.77137 19.1935 3.39935 18.8212C3.02733 18.449 2.80327 18.0979 2.60458 17.603C2.46084 17.2307 2.28751 16.6681 2.24101 15.6402C2.18605 14.5277 2.1776 14.1893 2.1776 11.3679Z" fill="url(#paint3_linear_2274_9)"/>
<defs>
<linearGradient id="paint0_linear_2274_9" x1="10.844" y1="0.80127" x2="10.844" y2="21.9345" gradientUnits="userSpaceOnUse">
<stop stop-color="#4C53F4"/>
<stop offset="1" stop-color="#4F75FA"/>
</linearGradient>
<linearGradient id="paint1_linear_2274_9" x1="10.8397" y1="5.93652" x2="10.8397" y2="16.7993" gradientUnits="userSpaceOnUse">
<stop stop-color="#4C53F4"/>
<stop offset="1" stop-color="#4F75FA"/>
</linearGradient>
<linearGradient id="paint2_linear_2274_9" x1="16.4792" y1="4.45605" x2="16.4792" y2="6.99408" gradientUnits="userSpaceOnUse">
<stop stop-color="#4C53F4"/>
<stop offset="1" stop-color="#4F75FA"/>
</linearGradient>
<linearGradient id="paint3_linear_2274_9" x1="10.8313" y1="0.80127" x2="10.8313" y2="21.9345" gradientUnits="userSpaceOnUse">
<stop stop-color="#4C53F4"/>
<stop offset="1" stop-color="#4F75FA"/>
</linearGradient>
</defs>
</svg>
