<svg width="159" height="51" viewBox="0 0 159 51" fill="none" xmlns="http://www.w3.org/2000/svg">
<path d="M152.707 48H151.888C152.154 47.6687 152.417 47.3397 152.679 47.013C152.945 46.6817 153.206 46.3527 153.463 46.026L154.548 44.661L154.499 45.06C154.046 45.06 153.666 45.011 153.358 44.913C153.054 44.815 152.809 44.6797 152.623 44.507C152.431 44.339 152.296 44.1383 152.217 43.905C152.137 43.667 152.098 43.4103 152.098 43.135C152.098 42.7897 152.149 42.4887 152.252 42.232C152.354 41.9707 152.515 41.756 152.735 41.588C152.949 41.4153 153.213 41.287 153.526 41.203C153.843 41.119 154.216 41.077 154.646 41.077H157.18V44.213V44.913V48H156.522V45.13V44.213V41.658H154.695C154.48 41.658 154.258 41.6743 154.03 41.707C153.806 41.7397 153.6 41.8097 153.414 41.917C153.227 42.0197 153.073 42.1713 152.952 42.372C152.835 42.568 152.777 42.834 152.777 43.17C152.777 43.52 152.847 43.793 152.987 43.989C153.127 44.1803 153.299 44.3203 153.505 44.409C153.71 44.493 153.929 44.5443 154.163 44.563C154.396 44.577 154.606 44.584 154.793 44.584H156.662V45.13H154.772L155.206 44.815L154.226 46.061C153.969 46.383 153.715 46.7073 153.463 47.034C153.215 47.3607 152.963 47.6827 152.707 48Z" fill="url(#paint0_linear_209_2631)"/>
<path d="M144.939 48H144.267V44.913V44.213V41.077L144.918 41.049V44.171V46.908H145.002L146.773 44.353C147.156 43.8023 147.536 43.2563 147.914 42.715C148.297 42.169 148.677 41.623 149.055 41.077H149.727V44.213V44.913V48H149.076V44.927V42.162H148.992L147.235 44.696C146.843 45.256 146.458 45.809 146.08 46.355C145.702 46.8963 145.322 47.4447 144.939 48Z" fill="url(#paint1_linear_209_2631)"/>
<path d="M136.736 48H136.071V44.913V44.213V41.077L136.736 41.042V44.213V44.913V48ZM141.146 44.787H136.456V44.199H141.146V44.787ZM141.475 48H140.81V44.913V44.213V41.077H141.475V44.213V44.913V48Z" fill="url(#paint2_linear_209_2631)"/>
<path d="M130.274 48.133C129.947 48.133 129.653 48.0887 129.392 48C129.135 47.9067 128.913 47.7737 128.727 47.601C128.545 47.433 128.405 47.23 128.307 46.992C128.213 46.754 128.167 46.488 128.167 46.194C128.167 45.8253 128.237 45.5173 128.377 45.27C128.521 45.0227 128.701 44.8173 128.916 44.654C129.135 44.4907 129.373 44.367 129.63 44.283C129.891 44.1943 130.148 44.1243 130.4 44.073L132.738 43.611C132.756 43.1677 132.719 42.813 132.626 42.547C132.537 42.281 132.413 42.0733 132.255 41.924C132.087 41.7747 131.893 41.6767 131.674 41.63C131.454 41.5833 131.219 41.56 130.967 41.56C130.808 41.56 130.64 41.5717 130.463 41.595C130.29 41.6137 130.101 41.644 129.896 41.686C129.69 41.7327 129.473 41.7933 129.245 41.868C129.021 41.938 128.778 42.0267 128.517 42.134L128.468 41.476C128.636 41.4013 128.822 41.3313 129.028 41.266C129.233 41.2007 129.45 41.1423 129.679 41.091C129.907 41.0397 130.136 41 130.365 40.972C130.598 40.944 130.827 40.93 131.051 40.93C131.41 40.93 131.732 40.9743 132.017 41.063C132.306 41.1517 132.551 41.2893 132.752 41.476C132.957 41.6673 133.113 41.91 133.221 42.204C133.328 42.4933 133.382 42.8457 133.382 43.261V48H132.759L132.738 46.922H132.647C132.535 47.0807 132.395 47.2347 132.227 47.384C132.059 47.5287 131.872 47.657 131.667 47.769C131.466 47.8763 131.247 47.9627 131.009 48.028C130.775 48.098 130.53 48.133 130.274 48.133ZM130.386 47.51C130.6 47.51 130.817 47.482 131.037 47.426C131.256 47.3653 131.471 47.2697 131.681 47.139C131.886 47.0083 132.077 46.8473 132.255 46.656C132.432 46.46 132.586 46.2243 132.717 45.949L132.731 44.178L130.603 44.612C130.36 44.6587 130.131 44.7217 129.917 44.801C129.707 44.8757 129.522 44.9737 129.364 45.095C129.205 45.2163 129.079 45.3633 128.986 45.536C128.897 45.7087 128.853 45.9187 128.853 46.166C128.853 46.4087 128.89 46.6163 128.965 46.789C129.044 46.9617 129.151 47.0993 129.287 47.202C129.427 47.3093 129.59 47.3887 129.777 47.44C129.963 47.4867 130.166 47.51 130.386 47.51Z" fill="url(#paint3_linear_209_2631)"/>
<path d="M121.041 48H120.376V44.92V44.22V41.077H125.766V44.22V44.92V48H125.094V44.92V44.22V41.182L125.437 41.665H120.705L121.041 41.182V44.22V44.92V48Z" fill="url(#paint4_linear_209_2631)"/>
<path d="M110.474 48H109.83C109.891 47.4913 109.947 46.9967 109.998 46.516C110.054 46.0307 110.11 45.5477 110.166 45.067L110.278 44.108C110.339 43.5993 110.397 43.0953 110.453 42.596C110.514 42.092 110.572 41.5857 110.628 41.077H111.342C111.561 41.581 111.781 42.0827 112 42.582C112.219 43.0767 112.441 43.5737 112.665 44.073L113.946 46.985H114.03L115.311 44.073C115.53 43.5643 115.747 43.065 115.962 42.575C116.181 42.0803 116.403 41.581 116.627 41.077H117.334C117.39 41.5717 117.446 42.0757 117.502 42.589C117.563 43.1023 117.621 43.6133 117.677 44.122L117.782 45.074C117.833 45.55 117.887 46.0307 117.943 46.516C117.999 46.9967 118.055 47.4913 118.111 48H117.46C117.399 47.4073 117.336 46.8193 117.271 46.236C117.206 45.648 117.14 45.06 117.075 44.472L116.83 42.225H116.746L115.703 44.626C115.456 45.1907 115.211 45.7507 114.968 46.306C114.73 46.8613 114.487 47.426 114.24 48H113.736C113.489 47.426 113.244 46.8637 113.001 46.313C112.758 45.7623 112.513 45.2047 112.266 44.64L111.209 42.225H111.125L110.873 44.451C110.808 45.053 110.742 45.6457 110.677 46.229C110.612 46.8123 110.544 47.4027 110.474 48Z" fill="url(#paint5_linear_209_2631)"/>
<path d="M104.675 48.133C104.138 48.133 103.66 48.035 103.24 47.839C102.825 47.6383 102.472 47.37 102.183 47.034C101.889 46.698 101.665 46.3107 101.511 45.872C101.362 45.4287 101.287 44.9667 101.287 44.486C101.287 43.9633 101.369 43.485 101.532 43.051C101.695 42.617 101.924 42.2413 102.218 41.924C102.517 41.6113 102.871 41.3663 103.282 41.189C103.697 41.0117 104.162 40.923 104.675 40.923C105.198 40.923 105.664 41.014 106.075 41.196C106.49 41.3733 106.843 41.623 107.132 41.945C107.421 42.267 107.641 42.645 107.79 43.079C107.944 43.5083 108.021 43.9773 108.021 44.486C108.021 44.9993 107.942 45.4753 107.783 45.914C107.629 46.3527 107.405 46.7377 107.111 47.069C106.822 47.4003 106.469 47.6617 106.054 47.853C105.643 48.0397 105.184 48.133 104.675 48.133ZM104.675 47.503C105.123 47.503 105.513 47.419 105.844 47.251C106.18 47.0783 106.46 46.852 106.684 46.572C106.903 46.292 107.067 45.9723 107.174 45.613C107.286 45.249 107.342 44.8733 107.342 44.486C107.342 44.0473 107.279 43.6507 107.153 43.296C107.032 42.9367 106.857 42.6263 106.628 42.365C106.395 42.1037 106.115 41.9053 105.788 41.77C105.466 41.63 105.095 41.56 104.675 41.56C104.232 41.56 103.842 41.637 103.506 41.791C103.175 41.9403 102.895 42.148 102.666 42.414C102.433 42.68 102.258 42.9903 102.141 43.345C102.029 43.695 101.973 44.0753 101.973 44.486C101.973 44.8733 102.029 45.249 102.141 45.613C102.253 45.9723 102.421 46.292 102.645 46.572C102.869 46.852 103.149 47.0783 103.485 47.251C103.821 47.419 104.218 47.503 104.675 47.503Z" fill="url(#paint6_linear_209_2631)"/>
<path d="M95.1679 48H94.5029V44.92V44.206V41.077L95.1679 41.042V44.164V44.976V48ZM100.138 48H99.1789C98.8009 47.664 98.4276 47.3303 98.0589 46.999C97.6903 46.6677 97.3193 46.3363 96.9459 46.005L95.5319 44.745H95.0629V44.213H95.6229L96.7919 43.107C97.1559 42.7663 97.5176 42.428 97.8769 42.092C98.2363 41.756 98.5979 41.4177 98.9619 41.077H99.8649C99.4263 41.483 98.9923 41.8843 98.5629 42.281C98.1383 42.6777 97.7089 43.0743 97.2749 43.471L95.9939 44.661L95.9799 44.297L97.4359 45.599C97.8933 46.0003 98.3459 46.4017 98.7939 46.803C99.2419 47.1997 99.6899 47.5987 100.138 48Z" fill="url(#paint7_linear_209_2631)"/>
<path d="M84.2746 48H83.4556C83.7216 47.6687 83.9852 47.3397 84.2466 47.013C84.5126 46.6817 84.7739 46.3527 85.0306 46.026L86.1156 44.661L86.0666 45.06C85.6139 45.06 85.2336 45.011 84.9256 44.913C84.6222 44.815 84.3772 44.6797 84.1906 44.507C83.9992 44.339 83.8639 44.1383 83.7846 43.905C83.7052 43.667 83.6656 43.4103 83.6656 43.135C83.6656 42.7897 83.7169 42.4887 83.8196 42.232C83.9222 41.9707 84.0832 41.756 84.3026 41.588C84.5172 41.4153 84.7809 41.287 85.0936 41.203C85.4109 41.119 85.7842 41.077 86.2136 41.077H88.7476V44.213V44.913V48H88.0896V45.13V44.213V41.658H86.2626C86.0479 41.658 85.8262 41.6743 85.5976 41.707C85.3736 41.7397 85.1682 41.8097 84.9816 41.917C84.7949 42.0197 84.6409 42.1713 84.5196 42.372C84.4029 42.568 84.3446 42.834 84.3446 43.17C84.3446 43.52 84.4146 43.793 84.5546 43.989C84.6946 44.1803 84.8672 44.3203 85.0726 44.409C85.2779 44.493 85.4972 44.5443 85.7306 44.563C85.9639 44.577 86.1739 44.584 86.3606 44.584H88.2296V45.13H86.3396L86.7736 44.815L85.7936 46.061C85.5369 46.383 85.2826 46.7073 85.0306 47.034C84.7832 47.3607 84.5312 47.6827 84.2746 48Z" fill="url(#paint8_linear_209_2631)"/>
<path d="M78.2882 48.133C77.9615 48.133 77.6675 48.0887 77.4062 48C77.1495 47.9067 76.9278 47.7737 76.7411 47.601C76.5591 47.433 76.4192 47.23 76.3212 46.992C76.2278 46.754 76.1812 46.488 76.1812 46.194C76.1812 45.8253 76.2512 45.5173 76.3912 45.27C76.5358 45.0227 76.7155 44.8173 76.9302 44.654C77.1495 44.4907 77.3875 44.367 77.6441 44.283C77.9055 44.1943 78.1622 44.1243 78.4142 44.073L80.7522 43.611C80.7708 43.1677 80.7335 42.813 80.6402 42.547C80.5515 42.281 80.4278 42.0733 80.2691 41.924C80.1011 41.7747 79.9075 41.6767 79.6882 41.63C79.4688 41.5833 79.2332 41.56 78.9812 41.56C78.8225 41.56 78.6545 41.5717 78.4771 41.595C78.3045 41.6137 78.1155 41.644 77.9101 41.686C77.7048 41.7327 77.4878 41.7933 77.2592 41.868C77.0352 41.938 76.7925 42.0267 76.5312 42.134L76.4822 41.476C76.6502 41.4013 76.8368 41.3313 77.0422 41.266C77.2475 41.2007 77.4645 41.1423 77.6932 41.091C77.9218 41.0397 78.1505 41 78.3792 40.972C78.6125 40.944 78.8412 40.93 79.0652 40.93C79.4245 40.93 79.7465 40.9743 80.0312 41.063C80.3205 41.1517 80.5655 41.2893 80.7662 41.476C80.9715 41.6673 81.1278 41.91 81.2352 42.204C81.3425 42.4933 81.3962 42.8457 81.3962 43.261V48H80.7732L80.7522 46.922H80.6612C80.5492 47.0807 80.4092 47.2347 80.2411 47.384C80.0732 47.5287 79.8865 47.657 79.6812 47.769C79.4805 47.8763 79.2612 47.9627 79.0232 48.028C78.7898 48.098 78.5448 48.133 78.2882 48.133ZM78.4002 47.51C78.6148 47.51 78.8318 47.482 79.0512 47.426C79.2705 47.3653 79.4852 47.2697 79.6952 47.139C79.9005 47.0083 80.0918 46.8473 80.2691 46.656C80.4465 46.46 80.6005 46.2243 80.7312 45.949L80.7452 44.178L78.6171 44.612C78.3745 44.6587 78.1458 44.7217 77.9312 44.801C77.7212 44.8757 77.5368 44.9737 77.3782 45.095C77.2195 45.2163 77.0935 45.3633 77.0002 45.536C76.9115 45.7087 76.8671 45.9187 76.8671 46.166C76.8671 46.4087 76.9045 46.6163 76.9791 46.789C77.0585 46.9617 77.1658 47.0993 77.3012 47.202C77.4412 47.3093 77.6045 47.3887 77.7912 47.44C77.9778 47.4867 78.1808 47.51 78.4002 47.51Z" fill="url(#paint9_linear_209_2631)"/>
<path d="M69.7255 48H69.0605V44.92V44.206V41.077L69.7255 41.042V44.164V44.976V48ZM74.6955 48H73.7365C73.3585 47.664 72.9852 47.3303 72.6165 46.999C72.2479 46.6677 71.8769 46.3363 71.5035 46.005L70.0895 44.745H69.6206V44.213H70.1805L71.3495 43.107C71.7135 42.7663 72.0752 42.428 72.4345 42.092C72.7939 41.756 73.1555 41.4177 73.5195 41.077H74.4225C73.9839 41.483 73.5499 41.8843 73.1206 42.281C72.6959 42.6777 72.2666 43.0743 71.8326 43.471L70.5516 44.661L70.5376 44.297L71.9935 45.599C72.4509 46.0003 72.9035 46.4017 73.3515 46.803C73.7995 47.1997 74.2475 47.5987 74.6955 48Z" fill="url(#paint10_linear_209_2631)"/>
<path d="M64.7905 48.133C64.2352 48.133 63.7452 48.0397 63.3205 47.853C62.9005 47.6663 62.5435 47.412 62.2495 47.09C61.9555 46.768 61.7315 46.3877 61.5775 45.949C61.4282 45.5103 61.3535 45.0367 61.3535 44.528C61.3535 44.0147 61.4282 43.5387 61.5775 43.1C61.7269 42.6613 61.9438 42.281 62.2285 41.959C62.5085 41.637 62.8539 41.385 63.2645 41.203C63.6752 41.021 64.1419 40.93 64.6645 40.93C64.8652 40.93 65.0635 40.9417 65.2595 40.965C65.4555 40.9883 65.6469 41.0257 65.8335 41.077C66.0202 41.1283 66.1929 41.1867 66.3515 41.252C66.5102 41.3173 66.6595 41.3897 66.7995 41.469L66.7155 42.141C66.5195 42.029 66.3305 41.9357 66.1485 41.861C65.9712 41.7863 65.8009 41.728 65.6375 41.686C65.4649 41.644 65.3015 41.6137 65.1475 41.595C64.9982 41.5763 64.8559 41.567 64.7205 41.567C64.3099 41.567 63.9412 41.637 63.6145 41.777C63.2879 41.9123 63.0055 42.1083 62.7675 42.365C62.5342 42.6263 62.3545 42.939 62.2285 43.303C62.1025 43.6623 62.0395 44.0683 62.0395 44.521C62.0395 44.9363 62.0978 45.326 62.2145 45.69C62.3312 46.054 62.5062 46.3667 62.7395 46.628C62.9775 46.8987 63.2715 47.111 63.6215 47.265C63.9762 47.419 64.3892 47.496 64.8605 47.496C65.1872 47.496 65.5069 47.454 65.8195 47.37C66.1322 47.286 66.4355 47.1507 66.7295 46.964L66.8345 47.636C66.6105 47.7667 66.3235 47.8833 65.9735 47.986C65.6282 48.084 65.2339 48.133 64.7905 48.133Z" fill="url(#paint11_linear_209_2631)"/>
<path d="M57.1978 48.133C56.6004 48.133 56.0824 48.042 55.6438 47.86C55.2051 47.678 54.8388 47.4237 54.5448 47.097C54.2554 46.775 54.0384 46.3923 53.8938 45.949C53.7491 45.501 53.6768 45.0133 53.6768 44.486C53.6768 43.9633 53.7514 43.485 53.9008 43.051C54.0501 42.617 54.2601 42.2413 54.5308 41.924C54.8014 41.6067 55.1281 41.3617 55.5108 41.189C55.8934 41.0163 56.3228 40.93 56.7988 40.93C57.2234 40.93 57.6014 40.9953 57.9328 41.126C58.2688 41.252 58.5558 41.441 58.7938 41.693C59.0318 41.945 59.2138 42.2507 59.3398 42.61C59.4658 42.9693 59.5288 43.3847 59.5288 43.856C59.5288 44.0193 59.5241 44.1687 59.5148 44.304C59.5101 44.4347 59.4961 44.57 59.4728 44.71L58.8848 44.283C58.8941 44.2083 58.8988 44.136 58.8988 44.066C58.8988 43.996 58.8988 43.926 58.8988 43.856C58.8988 43.464 58.8474 43.1233 58.7448 42.834C58.6468 42.5447 58.5068 42.302 58.3248 42.106C58.1428 41.91 57.9234 41.7653 57.6668 41.672C57.4101 41.5787 57.1254 41.532 56.8128 41.532C56.4254 41.532 56.0778 41.6043 55.7698 41.749C55.4664 41.889 55.2121 42.092 55.0068 42.358C54.7921 42.6193 54.6288 42.925 54.5168 43.275C54.4094 43.625 54.3558 44.0147 54.3558 44.444V44.514C54.3558 44.9713 54.4141 45.3843 54.5308 45.753C54.6474 46.117 54.8248 46.4297 55.0628 46.691C55.3008 46.9477 55.5971 47.146 55.9518 47.286C56.3111 47.426 56.7381 47.496 57.2328 47.496C57.4101 47.496 57.5898 47.4867 57.7718 47.468C57.9538 47.4493 58.1334 47.419 58.3108 47.377C58.4928 47.335 58.6701 47.2813 58.8428 47.216C59.0201 47.146 59.1881 47.0643 59.3468 46.971L59.3888 47.636C59.1228 47.7947 58.7984 47.916 58.4158 48C58.0378 48.0887 57.6318 48.133 57.1978 48.133ZM59.4728 44.71H53.9848V44.15H59.0318L59.4728 44.262V44.71Z" fill="url(#paint12_linear_209_2631)"/>
<path d="M51.3314 48H50.6664V44.997C50.5497 45.053 50.4214 45.109 50.2814 45.165C50.1414 45.221 49.9897 45.27 49.8264 45.312C49.6537 45.3587 49.474 45.396 49.2874 45.424C49.1007 45.452 48.8977 45.466 48.6784 45.466C48.263 45.466 47.8967 45.4263 47.5794 45.347C47.2667 45.263 47.0007 45.1347 46.7814 44.962C46.562 44.794 46.394 44.577 46.2774 44.311C46.1654 44.0403 46.1094 43.7183 46.1094 43.345V41.077L46.7744 41.042V43.289C46.7744 43.583 46.814 43.8303 46.8934 44.031C46.9727 44.227 47.0964 44.3903 47.2644 44.521C47.4277 44.647 47.6354 44.7403 47.8874 44.801C48.1394 44.857 48.4404 44.885 48.7904 44.885C49.0937 44.885 49.411 44.8453 49.7424 44.766C50.0737 44.682 50.3817 44.5607 50.6664 44.402V44.136V41.077H51.3314V44.213V44.913V48Z" fill="url(#paint13_linear_209_2631)"/>
<path d="M38.986 48H38.314V44.913V44.213V41.077L38.965 41.049V44.171V46.908H39.049L40.82 44.353C41.2026 43.8023 41.583 43.2563 41.961 42.715C42.3436 42.169 42.724 41.623 43.102 41.077H43.774V44.213V44.913V48H43.123V44.927V42.162H43.039L41.282 44.696C40.89 45.256 40.505 45.809 40.127 46.355C39.749 46.8963 39.3686 47.4447 38.986 48Z" fill="url(#paint14_linear_209_2631)"/>
<path d="M35.4042 47.895H34.7462V44.913V44.213V41.182L35.0892 41.665H31.2112L31.5192 41.182C31.5052 41.4107 31.4889 41.6323 31.4702 41.847C31.4562 42.057 31.4445 42.274 31.4352 42.498C31.4212 42.7267 31.4049 42.967 31.3862 43.219C31.3722 43.471 31.3535 43.7463 31.3302 44.045C31.3115 44.3997 31.2765 44.7427 31.2252 45.074C31.1785 45.4007 31.1155 45.7133 31.0362 46.012C30.9522 46.3153 30.8519 46.5977 30.7352 46.859C30.6185 47.1157 30.4832 47.3443 30.3292 47.545L29.6362 47.454C29.7435 47.3467 29.8509 47.2043 29.9582 47.027C30.0702 46.845 30.1775 46.6117 30.2802 46.327C30.3875 46.047 30.4785 45.7087 30.5532 45.312C30.6325 44.9107 30.6885 44.437 30.7212 43.891C30.7445 43.5877 30.7632 43.31 30.7772 43.058C30.7959 42.806 30.8122 42.568 30.8262 42.344C30.8402 42.12 30.8519 41.9053 30.8612 41.7C30.8752 41.4947 30.8892 41.287 30.9032 41.077H35.4042V44.213V44.913V47.895ZM29.5522 49.96H28.9502V48.714V47.412H31.5192H33.9132H36.4822V48.714V49.96H35.8802L35.8452 47.895L36.0692 48H29.3632L29.5872 47.895L29.5522 49.96Z" fill="url(#paint15_linear_209_2631)"/>
<path d="M22.4845 48H21.8125V44.913V44.213V41.077L22.4635 41.049V44.171V46.908H22.5475L24.3185 44.353C24.7012 43.8023 25.0815 43.2563 25.4595 42.715C25.8422 42.169 26.2225 41.623 26.6005 41.077H27.2725V44.213V44.913V48H26.6215V44.927V42.162H26.5375L24.7805 44.696C24.3885 45.256 24.0035 45.809 23.6255 46.355C23.2475 46.8963 22.8672 47.4447 22.4845 48Z" fill="url(#paint16_linear_209_2631)"/>
<path d="M14.0488 50.688L13.3838 50.723V47.601V44.213V41.077L14.0138 41.021L14.0278 41.903H14.1258C14.2285 41.7817 14.3545 41.6627 14.5038 41.546C14.6578 41.4293 14.8328 41.3243 15.0288 41.231C15.2201 41.1377 15.4301 41.063 15.6588 41.007C15.8875 40.951 16.1301 40.923 16.3868 40.923C16.8721 40.923 17.3038 41.014 17.6818 41.196C18.0645 41.3733 18.3888 41.623 18.6548 41.945C18.9208 42.267 19.1215 42.645 19.2568 43.079C19.3968 43.513 19.4668 43.9913 19.4668 44.514C19.4668 45.004 19.4038 45.466 19.2778 45.9C19.1518 46.334 18.9605 46.7167 18.7038 47.048C18.4471 47.384 18.1298 47.65 17.7518 47.846C17.3738 48.0373 16.9281 48.133 16.4148 48.133C15.9201 48.133 15.4885 48.042 15.1198 47.86C14.7511 47.6733 14.4245 47.4073 14.1398 47.062H14.0488V47.622V50.688ZM16.2958 47.489C16.7391 47.489 17.1148 47.4073 17.4228 47.244C17.7355 47.0807 17.9945 46.859 18.1998 46.579C18.4051 46.3037 18.5521 45.9887 18.6408 45.634C18.7341 45.2747 18.7808 44.9013 18.7808 44.514C18.7808 44.1033 18.7318 43.7207 18.6338 43.366C18.5358 43.0113 18.3818 42.701 18.1718 42.435C17.9618 42.169 17.7005 41.959 17.3878 41.805C17.0751 41.651 16.7041 41.574 16.2748 41.574C15.8315 41.574 15.4138 41.6673 15.0218 41.854C14.6345 42.0407 14.3101 42.3277 14.0488 42.715V46.173C14.3101 46.593 14.6205 46.9173 14.9798 47.146C15.3438 47.3747 15.7825 47.489 16.2958 47.489Z" fill="url(#paint17_linear_209_2631)"/>
<path d="M7.73336 48.133C7.1967 48.133 6.7207 48.035 6.30536 47.839C5.89003 47.6383 5.54236 47.37 5.26236 47.034C4.9777 46.698 4.7607 46.3107 4.61136 45.872C4.4667 45.4287 4.39436 44.9667 4.39436 44.486C4.39436 43.9633 4.47136 43.485 4.62536 43.051C4.78403 42.617 5.01036 42.2413 5.30436 41.924C5.59836 41.6113 5.94836 41.3663 6.35436 41.189C6.76036 41.0117 7.2177 40.923 7.72636 40.923C8.2397 40.923 8.69936 41.014 9.10536 41.196C9.51603 41.3733 9.86603 41.623 10.1554 41.945C10.44 42.267 10.6594 42.645 10.8134 43.079C10.9674 43.5083 11.0444 43.9773 11.0444 44.486C11.0444 44.9993 10.965 45.4753 10.8064 45.914C10.6524 46.3527 10.4307 46.7377 10.1414 47.069C9.84736 47.4003 9.49736 47.6617 9.09136 47.853C8.69003 48.0397 8.23736 48.133 7.73336 48.133ZM2.46236 48H1.79736V44.913V44.213V41.077L2.46236 41.042V44.213V44.913V48ZM4.75836 44.787H2.18236V44.199H4.75836V44.787ZM7.73336 47.503C8.1767 47.503 8.55936 47.419 8.88136 47.251C9.20803 47.0783 9.48336 46.852 9.70736 46.572C9.9267 46.292 10.09 45.9723 10.1974 45.613C10.3047 45.249 10.3584 44.8733 10.3584 44.486C10.3584 44.0473 10.2977 43.6507 10.1764 43.296C10.055 42.9367 9.88003 42.6263 9.65136 42.365C9.41803 42.1037 9.14036 41.9053 8.81836 41.77C8.49636 41.63 8.1347 41.56 7.73336 41.56C7.29003 41.56 6.9027 41.637 6.57136 41.791C6.24003 41.9403 5.9647 42.148 5.74536 42.414C5.52136 42.68 5.35336 42.9903 5.24136 43.345C5.12936 43.695 5.07336 44.0753 5.07336 44.486C5.07336 44.8733 5.12703 45.249 5.23436 45.613C5.3417 45.9723 5.50503 46.292 5.72436 46.572C5.9437 46.852 6.21903 47.0783 6.55036 47.251C6.8817 47.419 7.27603 47.503 7.73336 47.503Z" fill="url(#paint18_linear_209_2631)"/>
<path d="M140.71 0H158.79V2.2H144.35V12.24H156.75V14.16H144.35V25.8H158.79V28H140.71V0Z" fill="url(#paint19_linear_209_2631)"/>
<path d="M115.085 28V0H125.085C126.472 0 127.672 0.213334 128.685 0.640001C129.725 1.04 130.565 1.56 131.205 2.2C131.872 2.84 132.365 3.54667 132.685 4.32C133.005 5.09333 133.165 5.85333 133.165 6.6C133.165 7.45333 132.978 8.26667 132.605 9.04C132.232 9.78667 131.725 10.4533 131.085 11.04C130.472 11.6 129.752 12.0667 128.925 12.44C128.098 12.7867 127.218 12.96 126.285 12.96V13.12C126.872 13.1467 127.645 13.24 128.605 13.4C129.565 13.56 130.498 13.88 131.405 14.36C132.312 14.84 133.085 15.5333 133.725 16.44C134.392 17.3467 134.725 18.56 134.725 20.08C134.725 21.04 134.552 22 134.205 22.96C133.885 23.8933 133.352 24.7333 132.605 25.48C131.858 26.2267 130.872 26.84 129.645 27.32C128.418 27.7733 126.912 28 125.125 28H115.085ZM118.725 26.24H124.525C125.378 26.24 126.178 26.12 126.925 25.88C127.698 25.6133 128.365 25.2267 128.925 24.72C129.485 24.2133 129.925 23.6 130.245 22.88C130.592 22.16 130.765 21.3333 130.765 20.4C130.765 19.5467 130.605 18.7333 130.285 17.96C129.992 17.1867 129.525 16.5067 128.885 15.92C128.272 15.3333 127.485 14.8667 126.525 14.52C125.565 14.1733 124.432 14 123.125 14H118.725V26.24ZM118.725 12.24H123.525C124.325 12.24 125.072 12.1067 125.765 11.84C126.485 11.5733 127.112 11.2 127.645 10.72C128.205 10.24 128.632 9.66667 128.925 9C129.245 8.33333 129.405 7.61333 129.405 6.84C129.405 6.22667 129.298 5.61333 129.085 5C128.872 4.38667 128.525 3.84 128.045 3.36C127.592 2.88 126.992 2.49333 126.245 2.2C125.525 1.90667 124.645 1.76 123.605 1.76H118.725V12.24Z" fill="url(#paint20_linear_209_2631)"/>
<path d="M101.348 19.76H87.548L84.028 28H82.188L94.028 0H96.028L109.068 28H105.188L101.348 19.76ZM100.508 17.96L94.228 4.48H94.068L88.308 17.96H100.508Z" fill="url(#paint21_linear_209_2631)"/>
<path d="M63.725 16.32V28H60.085V0H69.445C70.9916 0 72.3383 0.226667 73.485 0.680001C74.6316 1.13333 75.5783 1.74667 76.325 2.52C77.0983 3.26667 77.6716 4.16 78.045 5.2C78.4183 6.21333 78.605 7.28 78.605 8.4C78.605 9.57333 78.3916 10.68 77.965 11.72C77.5383 12.7333 76.8983 13.64 76.045 14.44C75.2183 15.2133 74.1783 15.8267 72.925 16.28C71.6716 16.7333 70.2316 16.96 68.605 16.96C67.645 16.96 66.765 16.9067 65.965 16.8C65.165 16.6667 64.4183 16.5067 63.725 16.32ZM63.725 1.76V14.68C64.285 14.8933 64.9116 15.04 65.605 15.12C66.2983 15.1733 67.0583 15.2 67.885 15.2C69.085 15.2 70.1116 15 70.965 14.6C71.8183 14.2 72.525 13.68 73.085 13.04C73.645 12.4 74.045 11.6933 74.285 10.92C74.5516 10.12 74.685 9.33333 74.685 8.56C74.685 7.76 74.5383 6.96 74.245 6.16C73.9783 5.33333 73.565 4.6 73.005 3.96C72.445 3.29333 71.7383 2.76 70.885 2.36C70.0316 1.96 69.045 1.76 67.925 1.76H63.725Z" fill="url(#paint22_linear_209_2631)"/>
<path d="M50.4921 0V28H46.8521V2.2H30.0921V28H26.4521V0H50.4921Z" fill="url(#paint23_linear_209_2631)"/>
<path d="M0.827148 28V0H10.8271C12.2138 0 13.4138 0.213334 14.4271 0.640001C15.4671 1.04 16.3071 1.56 16.9471 2.2C17.6138 2.84 18.1071 3.54667 18.4271 4.32C18.7471 5.09333 18.9072 5.85333 18.9072 6.6C18.9072 7.45333 18.7205 8.26667 18.3471 9.04C17.9738 9.78667 17.4671 10.4533 16.8271 11.04C16.2138 11.6 15.4938 12.0667 14.6671 12.44C13.8405 12.7867 12.9605 12.96 12.0271 12.96V13.12C12.6138 13.1467 13.3871 13.24 14.3471 13.4C15.3071 13.56 16.2405 13.88 17.1471 14.36C18.0538 14.84 18.8271 15.5333 19.4671 16.44C20.1338 17.3467 20.4671 18.56 20.4671 20.08C20.4671 21.04 20.2938 22 19.9472 22.96C19.6272 23.8933 19.0938 24.7333 18.3471 25.48C17.6005 26.2267 16.6138 26.84 15.3871 27.32C14.1605 27.7733 12.6538 28 10.8671 28H0.827148ZM4.46715 26.24H10.2671C11.1205 26.24 11.9205 26.12 12.6671 25.88C13.4405 25.6133 14.1071 25.2267 14.6671 24.72C15.2271 24.2133 15.6671 23.6 15.9871 22.88C16.3338 22.16 16.5071 21.3333 16.5071 20.4C16.5071 19.5467 16.3471 18.7333 16.0271 17.96C15.7338 17.1867 15.2671 16.5067 14.6272 15.92C14.0138 15.3333 13.2271 14.8667 12.2671 14.52C11.3071 14.1733 10.1738 14 8.86715 14H4.46715V26.24ZM4.46715 12.24H9.26715C10.0672 12.24 10.8138 12.1067 11.5071 11.84C12.2271 11.5733 12.8538 11.2 13.3871 10.72C13.9471 10.24 14.3738 9.66667 14.6671 9C14.9871 8.33333 15.1471 7.61333 15.1471 6.84C15.1471 6.22667 15.0405 5.61333 14.8271 5C14.6138 4.38667 14.2671 3.84 13.7872 3.36C13.3338 2.88 12.7338 2.49333 11.9871 2.2C11.2671 1.90667 10.3871 1.76 9.34715 1.76H4.46715V12.24Z" fill="url(#paint24_linear_209_2631)"/>
<defs>
<linearGradient id="paint0_linear_209_2631" x1="3.49988" y1="8" x2="154" y2="48" gradientUnits="userSpaceOnUse">
<stop stop-color="#2422A3"/>
<stop offset="1" stop-color="#4542D8"/>
</linearGradient>
<linearGradient id="paint1_linear_209_2631" x1="3.49993" y1="8" x2="154" y2="48" gradientUnits="userSpaceOnUse">
<stop stop-color="#2422A3"/>
<stop offset="1" stop-color="#4542D8"/>
</linearGradient>
<linearGradient id="paint2_linear_209_2631" x1="3.4997" y1="7.99999" x2="154" y2="48" gradientUnits="userSpaceOnUse">
<stop stop-color="#2422A3"/>
<stop offset="1" stop-color="#4542D8"/>
</linearGradient>
<linearGradient id="paint3_linear_209_2631" x1="3.49982" y1="7.99999" x2="154" y2="48" gradientUnits="userSpaceOnUse">
<stop stop-color="#2422A3"/>
<stop offset="1" stop-color="#4542D8"/>
</linearGradient>
<linearGradient id="paint4_linear_209_2631" x1="3.49965" y1="7.99998" x2="154" y2="48" gradientUnits="userSpaceOnUse">
<stop stop-color="#2422A3"/>
<stop offset="1" stop-color="#4542D8"/>
</linearGradient>
<linearGradient id="paint5_linear_209_2631" x1="3.49976" y1="7.99998" x2="154" y2="48" gradientUnits="userSpaceOnUse">
<stop stop-color="#2422A3"/>
<stop offset="1" stop-color="#4542D8"/>
</linearGradient>
<linearGradient id="paint6_linear_209_2631" x1="3.49963" y1="8" x2="154" y2="48" gradientUnits="userSpaceOnUse">
<stop stop-color="#2422A3"/>
<stop offset="1" stop-color="#4542D8"/>
</linearGradient>
<linearGradient id="paint7_linear_209_2631" x1="3.49979" y1="7.99999" x2="154" y2="48" gradientUnits="userSpaceOnUse">
<stop stop-color="#2422A3"/>
<stop offset="1" stop-color="#4542D8"/>
</linearGradient>
<linearGradient id="paint8_linear_209_2631" x1="3.49982" y1="7.99999" x2="154" y2="48" gradientUnits="userSpaceOnUse">
<stop stop-color="#2422A3"/>
<stop offset="1" stop-color="#4542D8"/>
</linearGradient>
<linearGradient id="paint9_linear_209_2631" x1="3.49984" y1="7.99999" x2="154" y2="48" gradientUnits="userSpaceOnUse">
<stop stop-color="#2422A3"/>
<stop offset="1" stop-color="#4542D8"/>
</linearGradient>
<linearGradient id="paint10_linear_209_2631" x1="3.49966" y1="7.99998" x2="154" y2="48" gradientUnits="userSpaceOnUse">
<stop stop-color="#2422A3"/>
<stop offset="1" stop-color="#4542D8"/>
</linearGradient>
<linearGradient id="paint11_linear_209_2631" x1="3.49994" y1="7.99998" x2="154" y2="48" gradientUnits="userSpaceOnUse">
<stop stop-color="#2422A3"/>
<stop offset="1" stop-color="#4542D8"/>
</linearGradient>
<linearGradient id="paint12_linear_209_2631" x1="3.4997" y1="7.99998" x2="154" y2="48" gradientUnits="userSpaceOnUse">
<stop stop-color="#2422A3"/>
<stop offset="1" stop-color="#4542D8"/>
</linearGradient>
<linearGradient id="paint13_linear_209_2631" x1="3.49973" y1="7.99998" x2="154" y2="48" gradientUnits="userSpaceOnUse">
<stop stop-color="#2422A3"/>
<stop offset="1" stop-color="#4542D8"/>
</linearGradient>
<linearGradient id="paint14_linear_209_2631" x1="3.50003" y1="8.00001" x2="154" y2="48" gradientUnits="userSpaceOnUse">
<stop stop-color="#2422A3"/>
<stop offset="1" stop-color="#4542D8"/>
</linearGradient>
<linearGradient id="paint15_linear_209_2631" x1="3.49997" y1="8" x2="154" y2="48" gradientUnits="userSpaceOnUse">
<stop stop-color="#2422A3"/>
<stop offset="1" stop-color="#4542D8"/>
</linearGradient>
<linearGradient id="paint16_linear_209_2631" x1="3.49997" y1="8" x2="154" y2="48" gradientUnits="userSpaceOnUse">
<stop stop-color="#2422A3"/>
<stop offset="1" stop-color="#4542D8"/>
</linearGradient>
<linearGradient id="paint17_linear_209_2631" x1="3.4997" y1="7.99999" x2="154" y2="48" gradientUnits="userSpaceOnUse">
<stop stop-color="#2422A3"/>
<stop offset="1" stop-color="#4542D8"/>
</linearGradient>
<linearGradient id="paint18_linear_209_2631" x1="3.49991" y1="8" x2="154" y2="48" gradientUnits="userSpaceOnUse">
<stop stop-color="#2422A3"/>
<stop offset="1" stop-color="#4542D8"/>
</linearGradient>
<linearGradient id="paint19_linear_209_2631" x1="3.49981" y1="8" x2="154" y2="48" gradientUnits="userSpaceOnUse">
<stop stop-color="#2422A3"/>
<stop offset="1" stop-color="#4542D8"/>
</linearGradient>
<linearGradient id="paint20_linear_209_2631" x1="3.49982" y1="7.99999" x2="154" y2="48" gradientUnits="userSpaceOnUse">
<stop stop-color="#2422A3"/>
<stop offset="1" stop-color="#4542D8"/>
</linearGradient>
<linearGradient id="paint21_linear_209_2631" x1="3.49969" y1="8" x2="154" y2="48" gradientUnits="userSpaceOnUse">
<stop stop-color="#2422A3"/>
<stop offset="1" stop-color="#4542D8"/>
</linearGradient>
<linearGradient id="paint22_linear_209_2631" x1="3.49982" y1="7.99999" x2="154" y2="48" gradientUnits="userSpaceOnUse">
<stop stop-color="#2422A3"/>
<stop offset="1" stop-color="#4542D8"/>
</linearGradient>
<linearGradient id="paint23_linear_209_2631" x1="3.49982" y1="7.99999" x2="154" y2="48" gradientUnits="userSpaceOnUse">
<stop stop-color="#2422A3"/>
<stop offset="1" stop-color="#4542D8"/>
</linearGradient>
<linearGradient id="paint24_linear_209_2631" x1="3.49982" y1="7.99999" x2="154" y2="48" gradientUnits="userSpaceOnUse">
<stop stop-color="#2422A3"/>
<stop offset="1" stop-color="#4542D8"/>
</linearGradient>
</defs>
</svg>
