<svg width="26" height="19" viewBox="0 0 26 19" fill="none" xmlns="http://www.w3.org/2000/svg">
<path d="M25.9219 9.15C25.9219 9 25.9219 8.85 25.7344 8.7C25.7344 8.55 25.5469 8.4 25.3594 8.4L15.9844 0.9C15.4219 0.45 14.4844 0.45 13.9219 0.9C13.3594 1.35 13.3594 2.10001 13.9219 2.55001L20.8594 8.1L1.92187 8.1C1.17187 8.1 0.421875 8.55001 0.421875 9.30001C0.421875 10.05 0.984374 10.5 1.92187 10.5L21.0469 10.5L14.1094 16.05C13.5469 16.5 13.5469 17.25 14.1094 17.7C14.6719 18.15 15.6094 18.15 16.1719 17.7L25.5469 10.2C25.7344 10.05 25.7344 9.9 25.9219 9.9C25.7344 9.45 25.9219 9.3 25.9219 9.15Z" fill="#313239"/>
</svg>
