<svg width="26" height="19" viewBox="0 0 26 19" fill="none" xmlns="http://www.w3.org/2000/svg">
<path d="M0.0781269 9.15C0.0781269 9 0.0781231 8.85 0.265623 8.7C0.265623 8.55 0.453125 8.4 0.640625 8.4L10.0156 0.9C10.5781 0.45 11.5156 0.45 12.0781 0.9C12.6406 1.35 12.6406 2.10001 12.0781 2.55001L5.14062 8.1L24.0781 8.1C24.8281 8.1 25.5781 8.55001 25.5781 9.30001C25.5781 10.05 25.0156 10.5 24.0781 10.5L4.95312 10.5L11.8906 16.05C12.4531 16.5 12.4531 17.25 11.8906 17.7C11.3281 18.15 10.3906 18.15 9.82813 17.7L0.453127 10.2C0.265627 10.05 0.265627 9.9 0.0781269 9.9C0.265627 9.45 0.0781269 9.3 0.0781269 9.15Z" fill="#313239"/>
</svg>
