<svg width="23" height="23" viewBox="0 0 23 23" fill="none" xmlns="http://www.w3.org/2000/svg">
<path d="M11.1025 22.3411C17.1379 22.3411 22.0306 17.4484 22.0306 11.413C22.0306 5.37757 17.1379 0.484863 11.1025 0.484863C5.06702 0.484863 0.174316 5.37757 0.174316 11.413C0.174316 17.4484 5.06702 22.3411 11.1025 22.3411Z" fill="url(#paint0_linear_2274_216)"/>
<path d="M4.85927 11.1738C4.85927 11.1738 10.2725 8.87087 12.1499 8.05993C12.8696 7.73559 15.3103 6.69759 15.3103 6.69759C15.3103 6.69759 16.4367 6.2435 16.3428 7.34633C16.3115 7.80046 16.0612 9.38982 15.8109 11.109C15.4354 13.5417 15.0286 16.2015 15.0286 16.2015C15.0286 16.2015 14.9661 16.9476 14.4341 17.0773C13.9022 17.207 13.026 16.6232 12.8696 16.4934C12.7444 16.3962 10.5228 14.9365 9.70928 14.2229C9.49024 14.0283 9.23993 13.6391 9.74054 13.1849C10.867 12.1145 12.2125 10.7846 13.026 9.94128C13.4015 9.55202 13.777 8.6438 12.2125 9.74663C9.9909 11.336 7.80057 12.8281 7.80057 12.8281C7.80057 12.8281 7.29991 13.1525 6.36121 12.8605C5.42246 12.5686 4.3273 12.1794 4.3273 12.1794C4.3273 12.1794 3.57637 11.6928 4.85927 11.1738Z" fill="white"/>
<defs>
<linearGradient id="paint0_linear_2274_216" x1="11.1025" y1="0.484863" x2="11.1025" y2="22.3411" gradientUnits="userSpaceOnUse">
<stop stop-color="#4C53F4"/>
<stop offset="1" stop-color="#4F75FA"/>
</linearGradient>
</defs>
</svg>
