<svg width="29" height="16" viewBox="0 0 29 16" fill="none" xmlns="http://www.w3.org/2000/svg">
<path fill-rule="evenodd" clip-rule="evenodd" d="M27.4222 1.05399C27.6166 0.446437 27.4222 0 26.497 0H23.4377C22.6598 0 22.3012 0.385655 22.1067 0.810921C22.1067 0.810921 20.5509 4.36509 18.3469 6.67375C17.6338 7.34204 17.3097 7.55467 16.9207 7.55467C16.7263 7.55467 16.4448 7.34204 16.4448 6.73453V1.054C16.4448 0.324926 16.219 0 15.5707 0H10.7632C10.2771 0 9.98471 0.338378 9.98471 0.659071C9.98471 1.35021 11.0866 1.5096 11.2002 3.45378V7.67623C11.2002 8.60199 11.0218 8.76983 10.6329 8.76983C9.59576 8.76983 7.07292 5.19979 5.57664 1.11472C5.28341 0.320732 4.9893 0 4.20741 0H1.14805C0.273951 0 0.0991211 0.385655 0.0991211 0.810921C0.0991211 1.57038 1.13631 5.33718 4.92845 10.319C7.45653 13.7213 11.0184 15.5655 14.2596 15.5655C16.2043 15.5655 16.4448 15.1559 16.4448 14.4503V11.8789C16.4448 11.0597 16.6291 10.8962 17.2449 10.8962C17.6986 10.8962 18.4765 11.1088 20.2916 12.7492C22.3659 14.6933 22.7079 15.5655 23.8747 15.5655H26.9341C27.8082 15.5655 28.2452 15.1559 27.9931 14.3475C27.7172 13.5419 26.7268 12.373 25.4127 10.9873C24.6996 10.1975 23.63 9.347 23.3059 8.92164C22.8521 8.37491 22.9818 8.13184 23.3059 7.64584C23.3059 7.64584 27.0333 2.72471 27.4222 1.05399Z" fill="url(#paint0_linear_2274_81)"/>
<defs>
<linearGradient id="paint0_linear_2274_81" x1="14.0815" y1="0" x2="14.0815" y2="15.5655" gradientUnits="userSpaceOnUse">
<stop stop-color="#4C53F4"/>
<stop offset="1" stop-color="#4F75FA"/>
</linearGradient>
</defs>
</svg>
