<svg width="24" height="24" viewBox="0 0 24 24" fill="none" xmlns="http://www.w3.org/2000/svg">
<path d="M19.825 20.625C19.625 20.625 19.425 20.525 19.325 20.425L11.825 12.925L4.325 20.425C4.025 20.725 3.525 20.725 3.225 20.425C2.925 20.125 2.925 19.625 3.225 19.325L10.725 11.825L3.225 4.325C2.925 4.025 2.925 3.525 3.225 3.225C3.525 2.925 4.025 2.925 4.325 3.225L11.825 10.725L19.325 3.225C19.625 2.925 20.125 2.925 20.425 3.225C20.725 3.525 20.725 4.025 20.425 4.325L12.925 11.825L20.425 19.325C20.725 19.625 20.725 20.125 20.425 20.425C20.225 20.525 20.025 20.625 19.825 20.625Z" fill="#ABABAB"/>
</svg>
