<svg width="111" height="70" viewBox="0 0 111 70" fill="none" xmlns="http://www.w3.org/2000/svg">
<path d="M50.9133 35.0476C50.9133 40.5079 50.4507 45.3968 49.5257 49.7143C48.6718 54.0317 47.2131 57.7143 45.1495 60.7619C43.0859 63.746 40.4531 66.0317 37.251 67.619C34.0489 69.2064 30.0997 70 25.4033 70C19.5683 70 14.7652 68.6032 10.9938 65.8095C7.2225 63.0159 4.44735 59.0159 2.66841 53.8095C0.88947 48.6032 0 42.3492 0 35.0476C0 27.6825 0.818312 21.3968 2.45494 16.1905C4.09156 10.9841 6.75997 6.98413 10.4602 4.19047C14.2315 1.39682 19.2125 0 25.4033 0C31.2382 0 36.0413 1.39682 39.8127 4.19047C43.584 6.92063 46.3592 10.9206 48.1381 16.1905C49.9882 21.3968 50.9133 27.6825 50.9133 35.0476ZM17.1846 35.0476C17.1846 40.1905 17.398 44.5079 17.825 48C18.3231 51.4286 19.177 54.0317 20.3866 55.8095C21.5963 57.5238 23.2685 58.381 25.4033 58.381C27.538 58.381 29.1746 57.5238 30.3131 55.8095C31.5228 54.0952 32.3767 51.5238 32.8748 48.0952C33.4441 44.6032 33.7287 40.254 33.7287 35.0476C33.7287 29.8413 33.4441 25.5238 32.8748 22.0952C32.3767 18.6032 31.5228 16 30.3131 14.2857C29.1746 12.5079 27.538 11.619 25.4033 11.619C23.2685 11.619 21.5963 12.5079 20.3866 14.2857C19.177 16 18.3231 18.6032 17.825 22.0952C17.398 25.5238 17.1846 29.8413 17.1846 35.0476Z" fill="#A3B1F9"/>
<path d="M111 54.9524H102.781V69.0476H85.8102V54.9524H56.2442V44.9524L86.8776 1.04762H102.781V43.8095H111V54.9524ZM85.8102 32.2857C85.8102 31.2063 85.8102 29.9365 85.8102 28.4762C85.8814 26.9524 85.9525 25.4603 86.0237 24C86.0948 22.4762 86.166 21.1429 86.2372 20C86.3083 18.7936 86.3439 17.9683 86.3439 17.5238H85.9169C85.2765 18.7936 84.6361 20.0317 83.9957 21.2381C83.4264 22.381 82.7504 23.619 81.9677 24.9524L71.1873 43.8095H85.8102V32.2857Z" fill="#A3B1F9"/>
</svg>
