<svg width="124" height="286" viewBox="0 0 124 286" fill="none" xmlns="http://www.w3.org/2000/svg">
<path d="M60.7518 6C60.7518 8.94552 63.1396 11.3333 66.0852 11.3333C69.0307 11.3333 71.4185 8.94552 71.4185 6C71.4185 3.05448 69.0307 0.666667 66.0852 0.666667C63.1396 0.666667 60.7518 3.05448 60.7518 6ZM63.562 6.89917C63.1509 7.26799 63.1167 7.90023 63.4855 8.31131C63.8543 8.72239 64.4866 8.75664 64.8977 8.38781L63.562 6.89917ZM61.1887 11.8015C61.5904 11.4224 61.6087 10.7895 61.2296 10.3879C60.8505 9.98625 60.2176 9.96796 59.816 10.347L61.1887 11.8015ZM56.2053 13.8382C55.8129 14.2268 55.8099 14.86 56.1985 15.2524C56.5871 15.6448 57.2203 15.6479 57.6127 15.2593L56.2053 13.8382ZM54.0899 18.8319C54.473 18.4341 54.4611 17.801 54.0633 17.4179C53.6655 17.0348 53.0324 17.0467 52.6493 17.4445L54.0899 18.8319ZM49.1799 21.1323C48.8062 21.5389 48.8329 22.1715 49.2395 22.5452C49.6461 22.919 50.2787 22.8923 50.6525 22.4857L49.1799 21.1323ZM47.3145 26.2025C47.6788 25.7874 47.6375 25.1555 47.2224 24.7913C46.8073 24.427 46.1755 24.4682 45.8112 24.8833L47.3145 26.2025ZM42.5072 28.7375C42.1527 29.161 42.2085 29.7917 42.6319 30.1462C43.0554 30.5008 43.6861 30.445 44.0407 30.0215L42.5072 28.7375ZM40.8804 33.8851C41.2251 33.4536 41.1548 32.8243 40.7233 32.4796C40.2918 32.1349 39.6626 32.2053 39.3178 32.6368L40.8804 33.8851ZM36.2043 36.6287C35.8698 37.0681 35.9548 37.6955 36.3943 38.0301C36.8337 38.3646 37.4611 38.2796 37.7957 37.8401L36.2043 36.6287ZM34.8096 41.8599C35.1337 41.4127 35.0338 40.7875 34.5866 40.4634C34.1394 40.1393 33.5141 40.2392 33.1901 40.6864L34.8096 41.8599ZM30.274 44.8138C29.9608 45.2686 30.0756 45.8913 30.5305 46.2045C30.9853 46.5178 31.608 46.4029 31.9212 45.9481L30.274 44.8138ZM29.1274 50.1134C29.4294 49.651 29.2993 49.0313 28.8369 48.7294C28.3744 48.4274 27.7548 48.5575 27.4528 49.0199L29.1274 50.1134ZM24.7452 53.2813C24.4549 53.7512 24.6004 54.3674 25.0703 54.6577C25.5401 54.948 26.1563 54.8024 26.4466 54.3326L24.7452 53.2813ZM23.8647 58.6338C24.1428 58.1566 23.9814 57.5444 23.5042 57.2663C23.0271 56.9882 22.4148 57.1496 22.1367 57.6267L23.8647 58.6338ZM19.6518 62.0218C19.3864 62.5062 19.5639 63.114 20.0482 63.3794C20.5325 63.6448 21.1403 63.4673 21.4057 62.983L19.6518 62.0218ZM19.0578 67.4087C19.31 66.9173 19.116 66.3146 18.6246 66.0624C18.1333 65.8103 17.5305 66.0043 17.2784 66.4956L19.0578 67.4087ZM15.0332 71.0256C14.795 71.5238 15.0057 72.1209 15.504 72.3592C16.0022 72.5974 16.5993 72.3867 16.8375 71.8884L15.0332 71.0256ZM14.7437 76.4341C14.9674 75.9291 14.7395 75.3384 14.2345 75.1147C13.7296 74.891 13.1389 75.1189 12.9152 75.6239L14.7437 76.4341ZM10.9341 80.2806C10.7256 80.792 10.9711 81.3757 11.4825 81.5842C11.9939 81.7927 12.5775 81.5472 12.7861 81.0358L10.9341 80.2806ZM10.9694 85.6946C11.162 85.177 10.8985 84.6012 10.3809 84.4086C9.86334 84.2159 9.28758 84.4794 9.09496 84.997L10.9694 85.6946ZM7.40422 89.7709C7.22823 90.2944 7.50994 90.8614 8.03343 91.0374C8.55693 91.2134 9.12397 90.9317 9.29996 90.4082L7.40422 89.7709ZM7.78581 95.1697C7.94442 94.6407 7.64414 94.0832 7.11512 93.9246C6.5861 93.766 6.02867 94.0663 5.87006 94.5953L7.78581 95.1697ZM4.49717 99.4741C4.35671 100.008 4.67585 100.555 5.20997 100.696C5.7441 100.836 6.29096 100.517 6.43141 99.9827L4.49717 99.4741ZM5.24652 104.832C5.3681 104.293 5.02992 103.758 4.49119 103.637C3.95245 103.515 3.41716 103.853 3.29558 104.392L5.24652 104.832ZM2.26849 109.36C2.16656 109.902 2.52396 110.425 3.06676 110.527C3.60955 110.629 4.13221 110.272 4.23413 109.729L2.26849 109.36ZM3.40492 114.646C3.48654 114.1 3.1099 113.591 2.56368 113.509C2.01746 113.428 1.5085 113.804 1.42688 114.351L3.40492 114.646ZM0.772834 119.384C0.712242 119.933 1.10814 120.427 1.65709 120.488C2.20604 120.549 2.70017 120.153 2.76076 119.604L0.772834 119.384ZM2.31086 124.567C2.34989 124.016 1.93494 123.537 1.38404 123.498C0.833132 123.459 0.354893 123.874 0.315859 124.425L2.31086 124.567ZM0.0584004 129.496C0.0415065 130.048 0.475317 130.509 1.02734 130.526C1.57937 130.543 2.04057 130.109 2.05746 129.557L0.0584004 129.496ZM2.00624 134.538C2.00064 133.986 1.54841 133.543 0.996157 133.549C0.443901 133.554 0.000746429 134.006 0.0063442 134.559L2.00624 134.538ZM0.16274 139.634C0.1912 140.186 0.661391 140.61 1.21294 140.581C1.76449 140.553 2.18854 140.083 2.16008 139.531L0.16274 139.634ZM2.52028 144.499C2.46884 143.949 1.98138 143.545 1.43149 143.596C0.881609 143.648 0.477536 144.135 0.528972 144.685L2.52028 144.499ZM1.10809 149.73C1.18261 150.277 1.68664 150.66 2.23387 150.586C2.78111 150.511 3.16432 150.007 3.0898 149.46L1.10809 149.73ZM3.86526 154.379C3.76782 153.836 3.24814 153.474 2.70452 153.571C2.16089 153.669 1.79919 154.189 1.89663 154.732L3.86526 154.379ZM2.8976 159.711C3.01779 160.25 3.55221 160.59 4.09126 160.47C4.63031 160.35 4.96986 159.815 4.84967 159.276L2.8976 159.711ZM6.03389 164.111C5.89141 163.578 5.34334 163.261 4.80975 163.403C4.27617 163.546 3.95912 164.094 4.1016 164.627L6.03389 164.111ZM5.5142 169.51C5.67858 170.037 6.23926 170.331 6.76652 170.167C7.29377 170.002 7.58794 169.442 7.42356 168.915L5.5142 169.51ZM8.99929 173.63C8.81376 173.11 8.24167 172.839 7.72148 173.025C7.20129 173.21 6.92999 173.782 7.11552 174.302L8.99929 173.63ZM8.92239 179.065C9.12853 179.577 9.711 179.825 10.2234 179.619C10.7357 179.413 10.984 178.831 10.7779 178.318L8.92239 179.065ZM12.7178 182.883C12.4921 182.379 11.9005 182.153 11.3965 182.379C10.8924 182.605 10.6668 183.197 10.8925 183.701L12.7178 182.883ZM13.0729 188.33C13.3177 188.825 13.9174 189.028 14.4125 188.783C14.9076 188.538 15.1105 187.938 14.8658 187.443L13.0729 188.33ZM17.1346 191.83C16.8721 191.344 16.2654 191.163 15.7795 191.425C15.2936 191.688 15.1125 192.294 15.375 192.78L17.1346 191.83ZM17.8838 197.231C18.1636 197.707 18.7764 197.866 19.2526 197.586C19.7288 197.307 19.8881 196.694 19.6083 196.218L17.8838 197.231ZM22.1902 200.446C21.8945 199.98 21.2766 199.841 20.8102 200.137C20.3437 200.433 20.2053 201.051 20.501 201.517L22.1902 200.446ZM23.2886 205.757C23.5995 206.214 24.2216 206.332 24.678 206.021C25.1345 205.71 25.2525 205.088 24.9415 204.631L23.2886 205.757ZM27.8271 208.726C27.5019 208.28 26.8764 208.181 26.43 208.507C25.9837 208.832 25.8854 209.457 26.2107 209.904L27.8271 208.726ZM29.2309 213.92C29.5694 214.356 30.1976 214.435 30.634 214.097C31.0703 213.758 31.1497 213.13 30.8111 212.694L29.2309 213.92ZM33.9807 216.657C33.6294 216.23 32.9992 216.17 32.573 216.521C32.1468 216.872 32.086 217.502 32.4373 217.928L33.9807 216.657ZM35.6599 221.731C36.0227 222.147 36.6544 222.191 37.0708 221.828C37.4872 221.465 37.5306 220.833 37.1678 220.417L35.6599 221.731ZM40.5123 224.153C40.1385 223.746 39.5059 223.72 39.0993 224.094C38.6927 224.467 38.6661 225.1 39.0399 225.507L40.5123 224.153ZM42.5374 229.214C42.9215 229.61 43.5546 229.621 43.9514 229.237C44.3483 228.853 44.3586 228.22 43.9745 227.823L42.5374 229.214ZM47.4526 231.33C47.0591 230.943 46.426 230.948 46.0385 231.341C45.651 231.735 45.6558 232.368 46.0493 232.755L47.4526 231.33ZM49.7212 236.287C50.1237 236.665 50.7565 236.645 51.1347 236.243C51.5129 235.84 51.4932 235.208 51.0907 234.829L49.7212 236.287ZM54.7821 238.221C54.3713 237.852 53.739 237.885 53.3699 238.296C53.0007 238.707 53.0345 239.339 53.4453 239.708L54.7821 238.221ZM57.198 243.009C57.6165 243.37 58.2479 243.323 58.6083 242.904C58.9687 242.486 58.9217 241.854 58.5032 241.494L57.198 243.009ZM62.3719 244.757C61.9461 244.405 61.3158 244.465 60.9641 244.891C60.6123 245.317 60.6723 245.947 61.0981 246.299L62.3719 244.757ZM65.0229 249.477C65.4555 249.821 66.0845 249.749 66.4279 249.316C66.7714 248.884 66.6991 248.255 66.2666 247.911L65.0229 249.477ZM70.1741 250.955C69.7353 250.62 69.1077 250.704 68.7723 251.142C68.4369 251.581 68.5206 252.209 68.9594 252.544L70.1741 250.955ZM73.0306 255.599C73.4753 255.926 74.1013 255.831 74.4288 255.387C74.7564 254.942 74.6614 254.316 74.2167 253.988L73.0306 255.599ZM78.3105 256.949C77.8602 256.629 77.2359 256.735 76.9161 257.185C76.5963 257.636 76.702 258.26 77.1522 258.58L78.3105 256.949ZM81.2227 261.422C81.6781 261.735 82.3006 261.619 82.6131 261.164C82.9257 260.708 82.81 260.086 82.3547 259.773L81.2227 261.422ZM86.5219 262.586C86.0618 262.281 85.4412 262.406 85.1358 262.866C84.8304 263.326 84.9558 263.947 85.416 264.252L86.5219 262.586ZM89.7332 267.07C90.1979 267.368 90.8166 267.233 91.1149 266.769C91.4132 266.304 91.2783 265.685 90.8135 265.387L89.7332 267.07ZM94.967 268.012C94.498 267.72 93.8814 267.863 93.5896 268.332C93.2979 268.801 93.4415 269.418 93.9104 269.71L94.967 268.012ZM98.1843 272.328C98.6572 272.613 99.2719 272.461 99.5572 271.988C99.8425 271.516 99.6904 270.901 99.2175 270.616L98.1843 272.328ZM103.581 273.208C103.104 272.929 102.491 273.089 102.213 273.566C101.934 274.043 102.094 274.655 102.571 274.934L103.581 273.208ZM106.973 277.472C107.453 277.745 108.064 277.577 108.336 277.096C108.609 276.616 108.441 276.006 107.961 275.733L106.973 277.472ZM112.261 278.141C111.777 277.874 111.169 278.05 110.902 278.533C110.635 279.017 110.81 279.625 111.294 279.892L112.261 278.141ZM115.716 282.3C116.203 282.561 116.809 282.379 117.07 281.892C117.332 281.405 117.149 280.799 116.662 280.538L115.716 282.3ZM121.167 282.923C120.677 282.667 120.073 282.857 119.817 283.347C119.562 283.836 119.751 284.44 120.241 284.696L121.167 282.923ZM65.4269 5.24722C64.8065 5.78975 64.1847 6.34044 63.562 6.89917L64.8977 8.38781C65.5141 7.83474 66.1294 7.28969 66.7434 6.75278L65.4269 5.24722ZM59.816 10.347C58.6132 11.4822 57.409 12.6462 56.2053 13.8382L57.6127 15.2593C58.805 14.0785 59.9977 12.9256 61.1887 11.8015L59.816 10.347ZM52.6493 17.4445C51.4897 18.6486 50.3326 19.8781 49.1799 21.1323L50.6525 22.4857C51.7946 21.243 52.941 20.0248 54.0899 18.8319L52.6493 17.4445ZM45.8112 24.8833C44.7034 26.1458 43.6015 27.4308 42.5072 28.7375L44.0407 30.0215C45.1249 28.7267 46.2168 27.4534 47.3145 26.2025L45.8112 24.8833ZM39.3178 32.6368C38.2706 33.9476 37.2322 35.2785 36.2043 36.6287L37.7957 37.8401C38.814 36.5025 39.8428 35.1839 40.8804 33.8851L39.3178 32.6368ZM33.1901 40.6864C32.206 42.0444 31.2335 43.4204 30.274 44.8138L31.9212 45.9481C32.8715 44.5681 33.8348 43.2052 34.8096 41.8599L33.1901 40.6864ZM27.4528 49.0199C26.5357 50.4243 25.6327 51.845 24.7452 53.2813L26.4466 54.3326C27.3252 52.9106 28.2193 51.5041 29.1274 50.1134L27.4528 49.0199ZM22.1367 57.6267C21.2914 59.0771 20.4626 60.5424 19.6518 62.0218L21.4057 62.983C22.2079 61.5192 23.028 60.0693 23.8647 58.6338L22.1367 57.6267ZM17.2784 66.4956C16.5105 67.9923 15.7616 69.5024 15.0332 71.0256L16.8375 71.8884C17.5577 70.3824 18.2983 68.889 19.0578 67.4087L17.2784 66.4956ZM12.9152 75.6239C12.2328 77.164 11.572 78.7164 10.9341 80.2806L12.7861 81.0358C13.4163 79.4904 14.0692 77.9563 14.7437 76.4341L12.9152 75.6239ZM9.09496 84.997C8.50685 86.5773 7.94282 88.1687 7.40422 89.7709L9.29996 90.4082C9.83166 88.8266 10.3886 87.2552 10.9694 85.6946L9.09496 84.997ZM5.87006 94.5953C5.38546 96.2116 4.92739 97.8381 4.49717 99.4741L6.43141 99.9827C6.85574 98.3691 7.30763 96.7646 7.78581 95.1697L5.87006 94.5953ZM3.29558 104.392C2.92387 106.039 2.58107 107.695 2.26849 109.36L4.23413 109.729C4.54217 108.088 4.88005 106.456 5.24652 104.832L3.29558 104.392ZM1.42688 114.351C1.17731 116.021 0.958867 117.699 0.772834 119.384L2.76076 119.604C2.94394 117.944 3.15908 116.291 3.40492 114.646L1.42688 114.351ZM0.315859 124.425C0.196559 126.109 0.110324 127.799 0.0584004 129.496L2.05746 129.557C2.10856 127.888 2.19343 126.224 2.31086 124.567L0.315859 124.425ZM0.0063442 134.559C0.0234386 136.245 0.0751718 137.937 0.16274 139.634L2.16008 139.531C2.07395 137.862 2.02306 136.198 2.00624 134.538L0.0063442 134.559ZM0.528972 144.685C0.685876 146.362 0.878537 148.044 1.10809 149.73L3.0898 149.46C2.86406 147.802 2.67459 146.148 2.52028 144.499L0.528972 144.685ZM1.89663 154.732C2.19356 156.389 2.52687 158.049 2.8976 159.711L4.84967 159.276C4.48505 157.641 4.15726 156.008 3.86526 154.379L1.89663 154.732ZM4.1016 164.627C4.53563 166.253 5.00617 167.88 5.5142 169.51L7.42356 168.915C6.92373 167.311 6.46083 165.71 6.03389 164.111L4.1016 164.627ZM7.11552 174.302C7.68126 175.889 8.28326 177.476 8.92239 179.065L10.7779 178.318C10.1486 176.754 9.55608 175.192 8.99929 173.63L7.11552 174.302ZM10.8925 183.701C11.5833 185.243 12.3098 186.786 13.0729 188.33L14.8658 187.443C14.1139 185.923 13.3982 184.402 12.7178 182.883L10.8925 183.701ZM15.375 192.78C16.1766 194.264 17.0126 195.747 17.8838 197.231L19.6083 196.218C18.7491 194.755 17.9248 193.292 17.1346 191.83L15.375 192.78ZM20.501 201.517C21.3974 202.931 22.3264 204.345 23.2886 205.757L24.9415 204.631C23.9916 203.237 23.0747 201.842 22.1902 200.446L20.501 201.517ZM26.2107 209.904C27.1867 211.243 28.1933 212.582 29.2309 213.92L30.8111 212.694C29.7857 211.372 28.7913 210.049 27.8271 208.726L26.2107 209.904ZM32.4373 217.928C33.4828 219.197 34.5569 220.465 35.6599 221.731L37.1678 220.417C36.0767 219.165 35.0145 217.911 33.9807 216.657L32.4373 217.928ZM39.0399 225.507C40.1774 226.744 41.3431 227.98 42.5374 229.214L43.9745 227.823C42.792 226.601 41.638 225.378 40.5123 224.153L39.0399 225.507ZM46.0493 232.755C47.2465 233.934 48.4703 235.112 49.7212 236.287L51.0907 234.829C49.8511 233.665 48.6385 232.498 47.4526 231.33L46.0493 232.755ZM53.4453 239.708C54.6719 240.811 55.9227 241.911 57.198 243.009L58.5032 241.494C57.2383 240.405 55.9981 239.313 54.7821 238.221L53.4453 239.708ZM61.0981 246.299C62.3829 247.36 63.6911 248.42 65.0229 249.477L66.2666 247.911C64.9447 246.862 63.6466 245.81 62.3719 244.757L61.0981 246.299ZM68.9594 252.544C70.2939 253.564 71.6509 254.583 73.0306 255.599L74.2167 253.988C72.8464 252.979 71.499 251.968 70.1741 250.955L68.9594 252.544ZM77.1522 258.58C78.4888 259.529 79.8455 260.477 81.2227 261.422L82.3547 259.773C80.9862 258.834 79.6382 257.892 78.3105 256.949L77.1522 258.58ZM85.416 264.252C86.8343 265.194 88.2733 266.133 89.7332 267.07L90.8135 265.387C89.3621 264.455 87.9317 263.522 86.5219 262.586L85.416 264.252ZM93.9104 269.71C95.3165 270.585 96.7411 271.457 98.1843 272.328L99.2175 270.616C97.7819 269.75 96.3652 268.882 94.967 268.012L93.9104 269.71ZM102.571 274.934C104.02 275.782 105.487 276.628 106.973 277.472L107.961 275.733C106.482 274.893 105.022 274.052 103.581 273.208L102.571 274.934ZM111.294 279.892C112.751 280.697 114.225 281.499 115.716 282.3L116.662 280.538C115.178 279.741 113.711 278.942 112.261 278.141L111.294 279.892ZM120.241 284.696C121.004 285.094 121.771 285.492 122.542 285.889L123.458 284.111C122.69 283.715 121.926 283.319 121.167 282.923L120.241 284.696Z" fill="url(#paint0_linear_205_748)"/>
<defs>
<linearGradient id="paint0_linear_205_748" x1="62" y1="6" x2="62" y2="285" gradientUnits="userSpaceOnUse">
<stop stop-color="#4C53F4"/>
<stop offset="1" stop-color="#4F75FA"/>
</linearGradient>
</defs>
</svg>
