<svg width="130" height="129" viewBox="0 0 130 129" fill="none" xmlns="http://www.w3.org/2000/svg">
<rect x="6.76443" y="19.1736" width="103" height="104" rx="1.5" transform="rotate(-8 6.76443 19.1736)" stroke="#313239"/>
<rect x="28.1143" y="0.612372" width="104.328" height="104.328" rx="1.5" transform="rotate(15 28.1143 0.612372)" stroke="#313239"/>
<path d="M77.3704 97H63.3524V61.482C63.3524 60.5073 63.3524 59.3033 63.3524 57.87C63.4097 56.4367 63.4384 54.946 63.4384 53.398C63.4957 51.85 63.553 50.474 63.6104 49.27C63.1517 49.614 62.5497 50.2447 61.8044 51.162C61.1164 52.0793 60.3997 52.8533 59.6544 53.484L53.2044 59.16L46.1524 51.334L65.3304 35.596H77.3704V97Z" fill="#313239"/>
</svg>
