<svg width="130" height="389" viewBox="0 0 130 389" fill="none" xmlns="http://www.w3.org/2000/svg">
<path d="M42.9899 386.285C44.4626 383.734 43.5886 380.472 41.0377 378.999C38.4868 377.526 35.225 378.4 33.7523 380.951C32.2795 383.502 33.1535 386.764 35.7044 388.237C38.2553 389.709 41.5171 388.835 42.9899 386.285ZM41.023 382.605C41.4359 382.238 41.4733 381.606 41.1065 381.193C40.7397 380.78 40.1076 380.743 39.6947 381.11L41.023 382.605ZM43.5881 377.63C43.1774 378 43.1438 378.632 43.5131 379.043C43.8824 379.453 44.5147 379.487 44.9253 379.117L43.5881 377.63ZM48.725 375.679C49.1333 375.308 49.1629 374.675 48.7911 374.267C48.4192 373.858 47.7867 373.829 47.3784 374.201L48.725 375.679ZM51.0667 370.82C50.6608 371.195 50.6353 371.828 51.0098 372.233C51.3842 372.639 52.0169 372.665 52.4228 372.29L51.0667 370.82ZM56.0199 368.95C56.4233 368.573 56.4446 367.94 56.0674 367.536C55.6902 367.133 55.0574 367.112 54.654 367.489L56.0199 368.95ZM58.1411 364.206C57.7403 364.586 57.7234 365.219 58.1034 365.62C58.4834 366.02 59.1163 366.037 59.5171 365.657L58.1411 364.206ZM62.9304 362.398C63.3284 362.015 63.3407 361.382 62.9578 360.984C62.5749 360.586 61.9419 360.574 61.5439 360.957L62.9304 362.398ZM65.3344 357.279C64.9397 357.666 64.9328 358.299 65.3191 358.693C65.7054 359.088 66.3386 359.095 66.7333 358.709L65.3344 357.279ZM70.4071 355.081C70.7983 354.691 70.7994 354.058 70.4096 353.667C70.0198 353.276 69.3866 353.275 68.9954 353.664L70.4071 355.081ZM72.5284 350.111C72.1409 350.505 72.1457 351.138 72.5391 351.525C72.9326 351.913 73.5657 351.908 73.9533 351.515L72.5284 350.111ZM77.3734 348.009C77.7571 347.611 77.7461 346.978 77.3489 346.595C76.9516 346.211 76.3186 346.222 75.9349 346.619L77.3734 348.009ZM79.2163 343.187C78.8367 343.588 78.8541 344.221 79.2553 344.601C79.6564 344.981 80.2893 344.963 80.669 344.562L79.2163 343.187ZM84.0605 340.937C84.4356 340.532 84.4109 339.899 84.0054 339.524C83.6 339.149 82.9673 339.174 82.5923 339.579L84.0605 340.937ZM86.1095 335.727C85.7398 336.138 85.7728 336.77 86.1831 337.14C86.5934 337.509 87.2257 337.476 87.5954 337.066L86.1095 335.727ZM90.9674 333.272C91.3315 332.857 91.2898 332.225 90.8745 331.861C90.4591 331.497 89.8273 331.538 89.4633 331.954L90.9674 333.272ZM92.6561 328.258C92.2981 328.678 92.3489 329.31 92.7694 329.667C93.19 330.025 93.8211 329.975 94.1791 329.554L92.6561 328.258ZM97.2327 325.911C97.5842 325.485 97.5238 324.855 97.0978 324.503C96.6719 324.152 96.0416 324.212 95.6901 324.638L97.2327 325.911ZM98.8722 320.712C98.5283 321.144 98.6 321.773 99.0322 322.117C99.4644 322.461 100.094 322.389 100.437 321.957L98.8722 320.712ZM103.63 317.861C103.965 317.422 103.881 316.794 103.442 316.459C103.003 316.124 102.375 316.209 102.04 316.648L103.63 317.861ZM104.999 312.684C104.674 313.13 104.771 313.756 105.218 314.081C105.664 314.407 106.289 314.309 106.615 313.863L104.999 312.684ZM109.395 309.96C109.711 309.507 109.599 308.884 109.145 308.568C108.692 308.253 108.068 308.365 107.753 308.819L109.395 309.96ZM110.546 304.686C110.243 305.148 110.372 305.768 110.833 306.071C111.295 306.374 111.915 306.245 112.218 305.783L110.546 304.686ZM114.997 301.402C115.285 300.931 115.137 300.315 114.666 300.027C114.195 299.739 113.58 299.887 113.291 300.358L114.997 301.402ZM115.767 296.159C115.495 296.64 115.664 297.25 116.144 297.522C116.625 297.795 117.235 297.626 117.507 297.146L115.767 296.159ZM119.787 292.949C120.041 292.459 119.85 291.855 119.36 291.601C118.87 291.346 118.266 291.537 118.012 292.027L119.787 292.949ZM120.3 287.362C120.068 287.864 120.288 288.458 120.789 288.689C121.291 288.92 121.885 288.701 122.116 288.2L120.3 287.362ZM124.095 283.61C124.3 283.097 124.051 282.515 123.538 282.31C123.025 282.105 122.443 282.354 122.238 282.866L124.095 283.61ZM123.881 278.409C123.705 278.932 123.987 279.499 124.511 279.675C125.034 279.85 125.601 279.568 125.777 279.045L123.881 278.409ZM127.269 274.029C127.407 273.495 127.086 272.949 126.551 272.811C126.016 272.673 125.471 272.994 125.333 273.529L127.269 274.029ZM126.353 268.86C126.256 269.403 126.619 269.922 127.163 270.019C127.706 270.115 128.226 269.753 128.322 269.209L126.353 268.86ZM128.991 264.13C129.038 263.579 128.63 263.096 128.079 263.049C127.529 263.002 127.045 263.411 126.999 263.961L128.991 264.13ZM127.168 259.108C127.177 259.66 127.632 260.1 128.184 260.091C128.737 260.082 129.177 259.627 129.168 259.075L127.168 259.108ZM128.811 254.024C128.742 253.476 128.241 253.088 127.693 253.157C127.145 253.227 126.758 253.727 126.827 254.275L128.811 254.024ZM125.939 249.491C126.071 250.027 126.613 250.355 127.149 250.223C127.686 250.091 128.013 249.549 127.881 249.013L125.939 249.491ZM126.389 244.17C126.196 243.652 125.62 243.389 125.103 243.581C124.585 243.774 124.322 244.35 124.514 244.867L126.389 244.17ZM122.563 240.399C122.811 240.893 123.412 241.092 123.906 240.843C124.399 240.595 124.598 239.994 124.349 239.501L122.563 240.399ZM121.849 235.103C121.553 234.636 120.935 234.499 120.469 234.795C120.003 235.091 119.865 235.709 120.161 236.175L121.849 235.103ZM117.344 232.156C117.68 232.595 118.308 232.677 118.746 232.341C119.184 232.004 119.267 231.377 118.93 230.939L117.344 232.156ZM115.709 227.064C115.341 226.653 114.709 226.618 114.297 226.986C113.886 227.355 113.851 227.987 114.22 228.398L115.709 227.064ZM110.806 224.834C111.201 225.221 111.834 225.215 112.221 224.82C112.607 224.426 112.601 223.793 112.207 223.406L110.806 224.834ZM108.52 219.984C108.105 219.619 107.473 219.659 107.108 220.073C106.743 220.488 106.783 221.12 107.198 221.485L108.52 219.984ZM103.415 218.305C103.846 218.651 104.475 218.583 104.821 218.152C105.167 217.722 105.099 217.093 104.669 216.746L103.415 218.305ZM100.682 213.661C100.239 213.331 99.6124 213.423 99.2822 213.865C98.9521 214.308 99.0434 214.935 99.4861 215.265L100.682 213.661ZM95.4846 212.376C95.937 212.692 96.5606 212.583 96.8774 212.13C97.1943 211.678 97.0844 211.054 96.6321 210.737L95.4846 212.376ZM92.4526 207.887C91.9927 207.581 91.372 207.706 91.0661 208.166C90.7603 208.626 90.8851 209.247 91.345 209.553L92.4526 207.887ZM87.2144 206.863C87.6799 207.16 88.2982 207.024 88.5954 206.558C88.8926 206.093 88.7563 205.474 88.2908 205.177L87.2144 206.863ZM84.0286 202.5C83.5589 202.21 82.9426 202.355 82.6521 202.824C82.3615 203.294 82.5067 203.91 82.9764 204.201L84.0286 202.5ZM78.7407 201.612C79.2133 201.898 79.8281 201.746 80.1139 201.274C80.3998 200.801 80.2484 200.186 79.7758 199.9L78.7407 201.612ZM75.4915 197.329C75.0171 197.046 74.4033 197.202 74.1204 197.676C73.8376 198.15 73.9928 198.764 74.4672 199.047L75.4915 197.329ZM70.1684 196.493C70.6435 196.775 71.2569 196.618 71.5384 196.143C71.82 195.668 71.663 195.054 71.1879 194.773L70.1684 196.493ZM66.9032 192.234C66.4283 191.952 65.8148 192.109 65.5329 192.584C65.2511 193.059 65.4077 193.672 65.8826 193.954L66.9032 192.234ZM61.5873 191.395C62.0611 191.679 62.6753 191.525 62.959 191.051C63.2427 190.577 63.0885 189.963 62.6147 189.679L61.5873 191.395ZM58.3454 187.104C57.8736 186.816 57.2584 186.966 56.9713 187.438C56.6841 187.91 56.8338 188.525 57.3056 188.812L58.3454 187.104ZM53.05 186.192C53.5187 186.485 54.1354 186.341 54.4276 185.873C54.7197 185.404 54.5766 184.787 54.1079 184.495L53.05 186.192ZM49.9014 181.834C49.4368 181.535 48.8181 181.669 48.5194 182.134C48.2206 182.598 48.355 183.217 48.8196 183.516L49.9014 181.834ZM44.6247 180.767C45.0838 181.074 45.7048 180.95 46.0118 180.491C46.3188 180.032 46.1954 179.411 45.7363 179.104L44.6247 180.767ZM41.6564 176.314C41.204 175.997 40.5805 176.107 40.2636 176.559C39.9468 177.012 40.0567 177.635 40.5091 177.952L41.6564 176.314ZM36.4138 175.006C36.8577 175.334 37.4839 175.241 37.8125 174.797C38.141 174.353 38.0475 173.727 37.6036 173.398L36.4138 175.006ZM33.674 170.398C33.2403 170.056 32.6115 170.13 32.2695 170.564C31.9276 170.998 32.0019 171.627 32.4356 171.969L33.674 170.398ZM28.5402 168.785C28.9614 169.142 29.5924 169.091 29.9497 168.669C30.307 168.248 30.2551 167.617 29.834 167.26L28.5402 168.785ZM26.1229 163.981C25.7169 163.607 25.0842 163.633 24.7099 164.039C24.3356 164.445 24.3613 165.077 24.7673 165.452L26.1229 163.981ZM21.161 161.971C21.5491 162.364 22.1822 162.368 22.5752 161.979C22.9682 161.591 22.9722 160.958 22.5842 160.565L21.161 161.971ZM19.1972 156.949C18.8308 156.536 18.1988 156.498 17.7855 156.864C17.3722 157.231 17.3342 157.863 17.7005 158.276L19.1972 156.949ZM14.4836 154.425C14.8245 154.859 15.4532 154.935 15.8876 154.594C16.322 154.253 16.3978 153.624 16.0568 153.19L14.4836 154.425ZM13.1403 149.212C12.8291 148.756 12.2069 148.638 11.7507 148.95C11.2945 149.261 11.1769 149.883 11.4882 150.339L13.1403 149.212ZM8.79129 146.065C9.06861 146.542 9.68062 146.705 10.1582 146.427C10.6358 146.15 10.7982 145.538 10.5209 145.06L8.79129 146.065ZM8.23049 140.742C7.99098 140.245 7.3934 140.035 6.89575 140.275C6.3981 140.514 6.18884 141.112 6.42836 141.61L8.23049 140.742ZM4.41582 136.954C4.61401 137.47 5.19258 137.727 5.70807 137.529C6.22356 137.331 6.4808 136.752 6.28261 136.236L4.41582 136.954ZM4.72083 131.612C4.56598 131.082 4.01069 130.777 3.48055 130.932C2.95042 131.087 2.64619 131.642 2.80104 132.172L4.72083 131.612ZM1.58821 127.276C1.69885 127.818 2.22718 128.167 2.76826 128.056C3.30936 127.945 3.65831 127.417 3.54766 126.876L1.58821 127.276ZM2.75381 121.976C2.68761 121.428 2.18945 121.037 1.64115 121.104C1.09285 121.17 0.702014 121.668 0.768215 122.216L2.75381 121.976ZM0.361501 117.287C0.386464 117.838 0.853951 118.265 1.40568 118.24C1.95739 118.216 2.38442 117.748 2.35946 117.196L0.361501 117.287ZM2.31767 112.211C2.33287 111.659 1.89762 111.199 1.34555 111.184C0.793481 111.169 0.333619 111.604 0.318427 112.156L2.31767 112.211ZM0.620877 107.171C0.56972 107.721 0.97404 108.208 1.52395 108.26C2.07385 108.311 2.56111 107.906 2.61228 107.356L0.620877 107.171ZM3.20809 102.536C3.29183 101.99 2.91718 101.479 2.37128 101.396C1.82538 101.312 1.31496 101.686 1.23121 102.232L3.20809 102.536ZM2.16667 97.1164C2.05233 97.6567 2.39767 98.1874 2.938 98.3017C3.47833 98.416 4.00901 98.0707 4.12335 97.5304L2.16667 97.1164ZM5.23117 92.8594C5.37123 92.3252 5.0517 91.7785 4.51747 91.6385C3.98323 91.4984 3.43662 91.818 3.29655 92.3522L5.23117 92.8594ZM4.65897 87.5905C4.49566 88.1181 4.79096 88.6781 5.31854 88.8415C5.84613 89.0048 6.40622 88.7095 6.56953 88.1819L4.65897 87.5905ZM8.17674 83.3512C8.36168 82.8308 8.08972 82.259 7.56933 82.0741C7.04892 81.8891 6.47713 82.1611 6.2922 82.6815L8.17674 83.3512ZM8.05286 78C7.84934 78.5134 8.10055 79.0946 8.61397 79.2982C9.12738 79.5017 9.70859 79.2505 9.9121 78.737L8.05286 78ZM11.7475 74.3157C11.9672 73.809 11.7345 73.2201 11.2278 73.0004C10.721 72.7808 10.1322 73.0135 9.91252 73.5202L11.7475 74.3157ZM11.9891 68.9224C11.7544 69.4224 11.9694 70.0179 12.4693 70.2526C12.9693 70.4873 13.5648 70.2723 13.7995 69.7724L11.9891 68.9224ZM16.0731 65.1048C16.3218 64.6117 16.1237 64.0103 15.6306 63.7616C15.1375 63.5129 14.5361 63.711 14.2874 64.2041L16.0731 65.1048ZM16.5266 59.895C16.2662 60.382 16.4499 60.988 16.937 61.2484C17.424 61.5088 18.0299 61.325 18.2903 60.838L16.5266 59.895ZM20.6045 56.6224C20.8754 56.1412 20.705 55.5314 20.2237 55.2605C19.7425 54.9895 19.1327 55.16 18.8617 55.6412L20.6045 56.6224ZM21.3708 51.2928C21.0899 51.7683 21.2477 52.3815 21.7232 52.6624C22.1987 52.9433 22.8119 52.7856 23.0928 52.31L21.3708 51.2928ZM25.7585 47.8992C26.0487 47.4293 25.9031 46.8131 25.4333 46.5229C24.9634 46.2326 24.3472 46.3782 24.057 46.8481L25.7585 47.8992ZM26.7575 42.5631C26.459 43.0277 26.5936 43.6464 27.0583 43.9449C27.5229 44.2435 28.1416 44.1089 28.4401 43.6442L26.7575 42.5631ZM31.0335 39.677C31.3393 39.217 31.2142 38.5963 30.7543 38.2906C30.2944 37.9848 29.6736 38.1099 29.3679 38.5698L31.0335 39.677ZM32.1165 34.5014C31.804 34.9568 31.9198 35.5793 32.3751 35.8918C32.8305 36.2043 33.453 36.0886 33.7655 35.6332L32.1165 34.5014ZM36.638 31.512C36.957 31.0612 36.8501 30.4371 36.3993 30.1181C35.9484 29.7991 35.3243 29.906 35.0054 30.3569L36.638 31.512ZM38.0364 26.1351C37.7113 26.5815 37.8096 27.207 38.2561 27.5321C38.7025 27.8572 39.328 27.7589 39.6531 27.3124L38.0364 26.1351ZM42.6661 23.2294C42.9968 22.7871 42.9063 22.1604 42.4639 21.8298C42.0216 21.4991 41.3949 21.5896 41.0643 22.0319L42.6661 23.2294ZM43.9304 18.2417C43.5949 18.6804 43.6786 19.308 44.1173 19.6435C44.556 19.979 45.1836 19.8954 45.5191 19.4567L43.9304 18.2417ZM48.4836 15.6228C48.8237 15.1876 48.7467 14.5592 48.3116 14.219C47.8764 13.8789 47.2479 13.956 46.9078 14.3911L48.4836 15.6228ZM49.9977 10.4795C49.6532 10.9111 49.7239 11.5403 50.1555 11.8849C50.5872 12.2294 51.2164 12.1587 51.5609 11.7271L49.9977 10.4795ZM54.7523 7.76905C55.1011 7.3408 55.0366 6.71094 54.6084 6.36217C54.1801 6.01344 53.5502 6.07789 53.2015 6.50612L54.7523 7.76905ZM56.5204 2.47029C56.1676 2.89521 56.2261 3.52567 56.651 3.87847C57.0759 4.23127 57.7064 4.1728 58.0592 3.74789L56.5204 2.47029ZM39.033 384.367C39.7006 383.778 40.364 383.19 41.023 382.605L39.6947 381.11C39.0372 381.694 38.3753 382.28 37.7091 382.868L39.033 384.367ZM44.9253 379.117C46.2089 377.963 47.4754 376.817 48.725 375.679L47.3784 374.201C46.132 375.336 44.8686 376.479 43.5881 377.63L44.9253 379.117ZM52.4228 372.29C53.6386 371.169 54.8376 370.055 56.0199 368.95L54.654 367.489C53.4749 368.591 52.2792 369.702 51.0667 370.82L52.4228 372.29ZM59.5171 365.657C60.6714 364.563 61.8091 363.477 62.9304 362.398L61.5439 360.957C60.4262 362.032 59.292 363.115 58.1411 364.206L59.5171 365.657ZM66.7333 358.709C67.9793 357.489 69.2038 356.28 70.4071 355.081L68.9954 353.664C67.7965 354.859 66.5762 356.064 65.3344 357.279L66.7333 358.709ZM73.9533 351.515C75.1143 350.336 76.2542 349.167 77.3734 348.009L75.9349 346.619C74.8203 347.773 73.6849 348.937 72.5284 350.111L73.9533 351.515ZM80.669 344.562C81.8229 343.343 82.9533 342.134 84.0605 340.937L82.5923 339.579C81.4904 340.771 80.3651 341.973 79.2163 343.187L80.669 344.562ZM87.5954 337.066C88.7464 335.788 89.8703 334.524 90.9674 333.272L89.4633 331.954C88.3724 333.199 87.2546 334.456 86.1095 335.727L87.5954 337.066ZM94.1791 329.554C95.2232 328.327 96.2409 327.113 97.2327 325.911L95.6901 324.638C94.7049 325.832 93.6937 327.039 92.6561 328.258L94.1791 329.554ZM100.437 321.957C101.537 320.575 102.601 319.21 103.63 317.861L102.04 316.648C101.019 317.986 99.9634 319.34 98.8722 320.712L100.437 321.957ZM106.615 313.863C107.575 312.546 108.502 311.245 109.395 309.96L107.753 308.819C106.869 310.091 105.951 311.379 104.999 312.684L106.615 313.863ZM112.218 305.783C113.19 304.302 114.116 302.842 114.997 301.402L113.291 300.358C112.421 301.779 111.507 303.221 110.546 304.686L112.218 305.783ZM117.507 297.146C118.312 295.726 119.071 294.327 119.787 292.949L118.012 292.027C117.308 293.383 116.56 294.76 115.767 296.159L117.507 297.146ZM122.116 288.2C122.833 286.644 123.492 285.114 124.095 283.61L122.238 282.866C121.649 284.337 121.003 285.836 120.3 287.362L122.116 288.2ZM125.777 279.045C126.349 277.34 126.846 275.668 127.269 274.029L125.333 273.529C124.922 275.12 124.439 276.746 123.881 278.409L125.777 279.045ZM128.322 269.209C128.629 267.479 128.851 265.786 128.991 264.13L126.999 263.961C126.864 265.555 126.65 267.187 126.353 268.86L128.322 269.209ZM129.168 259.075C129.14 257.351 129.019 255.668 128.811 254.024L126.827 254.275C127.026 255.846 127.141 257.456 127.168 259.108L129.168 259.075ZM127.881 249.013C127.474 247.358 126.974 245.744 126.389 244.17L124.514 244.867C125.074 246.371 125.55 247.911 125.939 249.491L127.881 249.013ZM124.349 239.501C123.594 237.998 122.758 236.533 121.849 235.103L120.161 236.175C121.036 237.553 121.839 238.96 122.563 240.399L124.349 239.501ZM118.93 230.939C117.917 229.619 116.842 228.328 115.709 227.064L114.22 228.398C115.321 229.628 116.364 230.88 117.344 232.156L118.93 230.939ZM112.207 223.406C111.024 222.245 109.793 221.105 108.52 219.984L107.198 221.485C108.446 222.584 109.651 223.7 110.806 224.834L112.207 223.406ZM104.669 216.746C103.373 215.704 102.043 214.676 100.682 213.661L99.4861 215.265C100.829 216.266 102.14 217.279 103.415 218.305L104.669 216.746ZM96.6321 210.737C95.2628 209.778 93.8684 208.829 92.4526 207.887L91.345 209.553C92.7488 210.486 94.1299 211.427 95.4846 212.376L96.6321 210.737ZM88.2908 205.177C86.8857 204.28 85.4638 203.388 84.0286 202.5L82.9764 204.201C84.4048 205.085 85.8185 205.971 87.2144 206.863L88.2908 205.177ZM79.7758 199.9C78.3564 199.042 76.9272 198.185 75.4915 197.329L74.4672 199.047C75.9004 199.902 77.3259 200.756 78.7407 201.612L79.7758 199.9ZM71.1879 194.773C69.7619 193.928 68.3334 193.082 66.9032 192.234L65.8826 193.954C67.3135 194.803 68.7436 195.649 70.1684 196.493L71.1879 194.773ZM62.6147 189.679C61.1883 188.825 59.7643 187.967 58.3454 187.104L57.3056 188.812C58.7295 189.679 60.1578 190.539 61.5873 191.395L62.6147 189.679ZM54.1079 184.495C52.6966 183.616 51.2935 182.729 49.9014 181.834L48.8196 183.516C50.2206 184.417 51.6317 185.308 53.05 186.192L54.1079 184.495ZM45.7363 179.104C44.3612 178.185 43.0002 177.255 41.6564 176.314L40.5091 177.952C41.8657 178.902 43.2386 179.84 44.6247 180.767L45.7363 179.104ZM37.6036 173.398C36.2716 172.412 34.9607 171.413 33.674 170.398L32.4356 171.969C33.7395 172.997 35.0666 174.009 36.4138 175.006L37.6036 173.398ZM29.834 167.26C28.567 166.185 27.3289 165.093 26.1229 163.981L24.7673 165.452C25.9948 166.583 27.2536 167.694 28.5402 168.785L29.834 167.26ZM22.5842 160.565C21.4165 159.383 20.2863 158.178 19.1972 156.949L17.7005 158.276C18.8147 159.533 19.9695 160.764 21.161 161.971L22.5842 160.565ZM16.0568 153.19C15.0373 151.891 14.0639 150.566 13.1403 149.212L11.4882 150.339C12.438 151.731 13.4378 153.093 14.4836 154.425L16.0568 153.19ZM10.5209 145.06C9.70317 143.652 8.93849 142.213 8.23049 140.742L6.42836 141.61C7.15944 143.129 7.94844 144.613 8.79129 146.065L10.5209 145.06ZM6.28261 136.236C5.703 134.729 5.18123 133.188 4.72083 131.612L2.80104 132.172C3.27714 133.802 3.81665 135.396 4.41582 136.954L6.28261 136.236ZM3.54766 126.876C3.22111 125.279 2.95538 123.646 2.75381 121.976L0.768215 122.216C0.976283 123.94 1.25071 125.626 1.58821 127.276L3.54766 126.876ZM2.35946 117.196C2.28585 115.569 2.271 113.908 2.31767 112.211L0.318427 112.156C0.270433 113.901 0.285662 115.61 0.361501 117.287L2.35946 117.196ZM2.61228 107.356C2.75899 105.78 2.95691 104.173 3.20809 102.536L1.23121 102.232C0.974182 103.908 0.771353 105.554 0.620877 107.171L2.61228 107.356ZM4.12335 97.5304C4.44731 95.9994 4.81609 94.4427 5.23117 92.8594L3.29655 92.3522C2.8736 93.9654 2.49741 95.5533 2.16667 97.1164L4.12335 97.5304ZM6.56953 88.1819C7.06002 86.5974 7.59531 84.9874 8.17674 83.3512L6.2922 82.6815C5.70184 84.3428 5.15784 85.9789 4.65897 87.5905L6.56953 88.1819ZM9.9121 78.737C10.4884 77.2833 11.0999 75.8096 11.7475 74.3157L9.91252 73.5202C9.25675 75.033 8.63712 76.5261 8.05286 78L9.9121 78.737ZM13.7995 69.7724C14.5202 68.2374 15.2777 66.6817 16.0731 65.1048L14.2874 64.2041C13.4838 65.7973 12.718 67.3699 11.9891 68.9224L13.7995 69.7724ZM18.2903 60.838C19.033 59.4488 19.8042 58.0437 20.6045 56.6224L18.8617 55.6412C18.0545 57.0748 17.2763 58.4926 16.5266 59.895L18.2903 60.838ZM23.0928 52.31C23.9516 50.8563 24.84 49.3861 25.7585 47.8992L24.057 46.8481C23.1317 48.3459 22.2365 49.8274 21.3708 51.2928L23.0928 52.31ZM28.4401 43.6442C29.2817 42.3344 30.1461 41.0121 31.0335 39.677L29.3679 38.5698C28.4749 39.9134 27.6049 41.2444 26.7575 42.5631L28.4401 43.6442ZM33.7655 35.6332C34.6995 34.2725 35.6569 32.8988 36.638 31.512L35.0054 30.3569C34.0188 31.7512 33.056 33.1327 32.1165 34.5014L33.7655 35.6332ZM39.6531 27.3124C40.6354 25.9635 41.6397 24.6026 42.6661 23.2294L41.0643 22.0319C40.0329 23.4117 39.0237 24.7793 38.0364 26.1351L39.6531 27.3124ZM45.5191 19.4567C46.4886 18.1889 47.4767 16.911 48.4836 15.6228L46.9078 14.3911C45.8967 15.6848 44.9043 16.9683 43.9304 18.2417L45.5191 19.4567ZM51.5609 11.7271C52.6056 10.4182 53.6693 9.09888 54.7523 7.76905L53.2015 6.50612C52.1145 7.84093 51.0466 9.16535 49.9977 10.4795L51.5609 11.7271ZM58.0592 3.74789C58.6199 3.0725 59.1856 2.39447 59.7561 1.71377L58.2232 0.429073C57.6508 1.11212 57.0832 1.79254 56.5204 2.47029L58.0592 3.74789Z" fill="url(#paint0_linear_205_750)"/>
<defs>
<linearGradient id="paint0_linear_205_750" x1="-29.0037" y1="344.719" x2="141.798" y2="48.8811" gradientUnits="userSpaceOnUse">
<stop stop-color="#4C53F4"/>
<stop offset="1" stop-color="#4F75FA"/>
</linearGradient>
</defs>
</svg>
