<svg width="130" height="129" viewBox="0 0 130 129" fill="none" xmlns="http://www.w3.org/2000/svg">
<rect x="6.76443" y="19.1736" width="103" height="104" rx="1.5" transform="rotate(-8 6.76443 19.1736)" stroke="#313239"/>
<rect x="28.1143" y="0.612372" width="104.328" height="104.328" rx="1.5" transform="rotate(15 28.1143 0.612372)" stroke="#313239"/>
<path d="M86.0564 97H44.9484V87.97L59.2244 72.404C62.1484 69.1933 64.4417 66.5273 66.1044 64.406C67.8244 62.2273 69.0284 60.278 69.7164 58.558C70.4617 56.7807 70.8344 54.8887 70.8344 52.882C70.8344 50.4167 70.2324 48.582 69.0284 47.378C67.8817 46.174 66.391 45.572 64.5564 45.572C62.5497 45.572 60.543 46.1167 58.5364 47.206C56.587 48.2953 54.437 49.8433 52.0864 51.85L44.5184 43.508C46.2384 41.96 48.0444 40.5267 49.9364 39.208C51.8284 37.8893 54.0644 36.8287 56.6444 36.026C59.2244 35.166 62.3204 34.736 65.9324 34.736C69.7737 34.736 73.099 35.4813 75.9084 36.972C78.7177 38.4053 80.8677 40.3833 82.3584 42.906C83.9064 45.3713 84.6804 48.1807 84.6804 51.334C84.6804 53.914 84.3077 56.2647 83.5624 58.386C82.817 60.5073 81.7277 62.6 80.2944 64.664C78.9184 66.728 77.2557 68.878 75.3064 71.114C73.357 73.2927 71.1784 75.758 68.7704 78.51L62.5784 85.476L62.4924 86.078H86.0564V97Z" fill="#313239"/>
</svg>
