<svg width="130" height="326" viewBox="0 0 130 326" fill="none" xmlns="http://www.w3.org/2000/svg">
<path d="M11.3342 5.5C11.3342 8.44552 8.9464 10.8333 6.00088 10.8333C3.05536 10.8333 0.667542 8.44552 0.667542 5.5C0.667542 2.55448 3.05536 0.166667 6.00088 0.166667C8.9464 0.166667 11.3342 2.55448 11.3342 5.5ZM25.4352 322.623C25.8711 322.283 26.4994 322.362 26.8385 322.798C27.1776 323.234 27.0992 323.862 26.6632 324.201L25.4352 322.623ZM30.6979 321.041C30.2642 321.383 29.6354 321.309 29.2934 320.875C28.9515 320.442 29.0259 319.813 29.4596 319.471L30.6979 321.041ZM33.3949 316.347C33.8262 316.002 34.4555 316.072 34.8004 316.503C35.1452 316.935 35.0751 317.564 34.6437 317.909L33.3949 316.347ZM38.5013 314.803C38.0723 315.151 37.4426 315.085 37.0947 314.656C36.7469 314.227 36.8126 313.598 37.2416 313.25L38.5013 314.803ZM41.1653 310.043C41.5916 309.692 42.2218 309.753 42.5729 310.18C42.924 310.606 42.8631 311.236 42.4368 311.587L41.1653 310.043ZM46.3671 308.324C45.9436 308.678 45.3129 308.623 44.9584 308.199C44.6038 307.776 44.6598 307.145 45.0832 306.79L46.3671 308.324ZM48.9017 303.567C49.3222 303.209 49.9533 303.259 50.3113 303.68C50.6694 304.1 50.6188 304.732 50.1982 305.09L48.9017 303.567ZM53.9398 301.876C53.5224 302.238 52.8909 302.192 52.5292 301.775C52.1675 301.358 52.2127 300.726 52.63 300.364L53.9398 301.876ZM56.5042 296.975C56.9181 296.609 57.5501 296.648 57.9158 297.062C58.2815 297.476 58.2424 298.108 57.8286 298.473L56.5042 296.975ZM61.6059 295.102C61.1957 295.472 60.5634 295.439 60.1935 295.029C59.8237 294.619 59.8563 293.986 60.2665 293.616L61.6059 295.102ZM63.9175 290.289C64.3237 289.915 64.9564 289.941 65.3305 290.348C65.7047 290.754 65.6786 291.386 65.2724 291.761L63.9175 290.289ZM68.9974 288.291C68.5955 288.669 67.9626 288.651 67.5838 288.249C67.205 287.847 67.2238 287.214 67.6257 286.835L68.9974 288.291ZM71.295 283.335C71.6923 282.951 72.3253 282.962 72.709 283.359C73.0927 283.756 73.0817 284.389 72.6845 284.773L71.295 283.335ZM76.2469 281.288C75.8546 281.677 75.2215 281.674 74.8327 281.282C74.4439 280.89 74.4468 280.257 74.8391 279.868L76.2469 281.288ZM78.3879 276.302C78.7747 275.908 79.4078 275.902 79.802 276.289C80.1962 276.676 80.2022 277.309 79.8153 277.703L78.3879 276.302ZM83.3649 274.032C82.9841 274.432 82.3511 274.447 81.9511 274.066C81.5512 273.686 81.5357 273.053 81.9165 272.653L83.3649 274.032ZM85.3042 269.039C85.6786 268.633 86.3113 268.607 86.7172 268.982C87.1232 269.356 87.1487 269.989 86.7742 270.395L85.3042 269.039ZM90.1853 266.633C89.8179 267.046 89.1858 267.082 88.7734 266.715C88.3611 266.347 88.3246 265.715 88.692 265.303L90.1853 266.633ZM92.0189 261.499C92.3786 261.079 93.0099 261.031 93.429 261.391C93.8482 261.75 93.8965 262.382 93.5369 262.801L92.0189 261.499ZM96.7307 259.004C96.3794 259.43 95.7491 259.491 95.323 259.14C94.8968 258.788 94.8361 258.158 95.1874 257.732L96.7307 259.004ZM98.3865 253.764C98.7283 253.331 99.3571 253.256 99.7909 253.598C100.225 253.94 100.299 254.569 99.9574 255.002L98.3865 253.764ZM103.035 251.003C102.703 251.445 102.077 251.534 101.635 251.202C101.193 250.871 101.104 250.244 101.436 249.802L103.035 251.003ZM104.374 245.786C104.694 245.336 105.319 245.231 105.769 245.551C106.218 245.871 106.323 246.496 106.003 246.946L104.374 245.786ZM108.913 242.738C108.606 243.196 107.985 243.318 107.526 243.011C107.067 242.703 106.945 242.082 107.253 241.623L108.913 242.738ZM109.932 237.502C110.226 237.035 110.844 236.894 111.311 237.189C111.779 237.483 111.919 238.1 111.625 238.568L109.932 237.502ZM114.299 234.161C114.02 234.638 113.408 234.799 112.931 234.52C112.454 234.241 112.293 233.629 112.572 233.152L114.299 234.161ZM114.996 228.835C115.257 228.349 115.864 228.167 116.35 228.429C116.836 228.69 117.018 229.297 116.757 229.783L114.996 228.835ZM119.095 225.236C118.852 225.732 118.253 225.937 117.757 225.694C117.261 225.451 117.056 224.852 117.299 224.356L119.095 225.236ZM119.395 219.852C119.617 219.347 120.208 219.118 120.713 219.34C121.218 219.563 121.448 220.153 121.225 220.658L119.395 219.852ZM123.178 215.948C122.978 216.463 122.398 216.718 121.883 216.518C121.369 216.318 121.113 215.738 121.313 215.224L123.178 215.948ZM123.004 210.552C123.179 210.029 123.746 209.746 124.27 209.922C124.793 210.098 125.076 210.664 124.9 211.188L123.004 210.552ZM126.4 206.312C126.251 206.843 125.7 207.154 125.168 207.005C124.636 206.856 124.326 206.304 124.474 205.772L126.4 206.312ZM125.686 200.964C125.807 200.425 126.342 200.086 126.881 200.206C127.419 200.327 127.759 200.862 127.638 201.401L125.686 200.964ZM128.616 196.386C128.526 196.931 128.011 197.299 127.466 197.208C126.921 197.118 126.553 196.603 126.643 196.058L128.616 196.386ZM127.317 191.151C127.376 190.602 127.87 190.205 128.419 190.265C128.968 190.324 129.365 190.817 129.305 191.366L127.317 191.151ZM129.707 186.271C129.68 186.822 129.211 187.247 128.659 187.22C128.108 187.193 127.683 186.723 127.71 186.172L129.707 186.271ZM127.811 181.206C127.806 180.654 128.249 180.202 128.802 180.197C129.354 180.192 129.805 180.636 129.81 181.188L127.811 181.206ZM129.617 176.096C129.654 176.647 129.237 177.124 128.686 177.161C128.135 177.198 127.658 176.781 127.621 176.23L129.617 176.096ZM127.147 171.278C127.079 170.73 127.468 170.231 128.016 170.163C128.564 170.094 129.063 170.484 129.131 171.032L127.147 171.278ZM128.364 165.997C128.462 166.54 128.101 167.06 127.557 167.158C127.014 167.256 126.494 166.895 126.395 166.352L128.364 165.997ZM125.384 161.482C125.258 160.945 125.591 160.406 126.129 160.28C126.666 160.154 127.205 160.487 127.331 161.025L125.384 161.482ZM126.041 156.089C126.194 156.62 125.887 157.174 125.356 157.327C124.826 157.479 124.271 157.173 124.119 156.642L126.041 156.089ZM122.635 151.902C122.458 151.379 122.739 150.811 123.262 150.634C123.785 150.457 124.353 150.738 124.53 151.261L122.635 151.902ZM122.787 146.454C122.986 146.969 122.73 147.548 122.215 147.747C121.7 147.947 121.121 147.691 120.922 147.175L122.787 146.454ZM119.041 142.588C118.822 142.081 119.055 141.492 119.562 141.273C120.069 141.054 120.658 141.287 120.877 141.794L119.041 142.588ZM118.757 137.132C118.995 137.63 118.783 138.227 118.285 138.465C117.786 138.702 117.189 138.491 116.952 137.992L118.757 137.132ZM114.746 133.558C114.493 133.068 114.684 132.464 115.175 132.21C115.665 131.956 116.269 132.148 116.523 132.639L114.746 133.558ZM114.098 128.128C114.367 128.611 114.194 129.22 113.711 129.488C113.229 129.757 112.62 129.584 112.351 129.101L114.098 128.128ZM109.88 124.808C109.598 124.333 109.755 123.719 110.23 123.437C110.705 123.156 111.318 123.312 111.6 123.787L109.88 124.808ZM108.936 119.427C109.23 119.895 109.089 120.512 108.621 120.806C108.154 121.1 107.536 120.959 107.242 120.491L108.936 119.427ZM104.551 116.315C104.247 115.854 104.374 115.234 104.835 114.93C105.296 114.625 105.916 114.752 106.22 115.213L104.551 116.315ZM103.372 110.998C103.686 111.452 103.572 112.075 103.118 112.389C102.663 112.703 102.04 112.589 101.726 112.134L103.372 110.998ZM98.8472 108.05C98.5248 107.602 98.627 106.977 99.0754 106.655C99.5238 106.332 100.149 106.434 100.471 106.883L98.8472 108.05ZM97.4837 102.803C97.8137 103.246 97.7223 103.872 97.2795 104.202C96.8367 104.532 96.2101 104.441 95.8801 103.998L97.4837 102.803ZM92.8356 99.9804C92.4987 99.5428 92.5803 98.9149 93.0179 98.578C93.4555 98.2411 94.0834 98.3227 94.4203 98.7603L92.8356 99.9804ZM91.3299 94.8054C91.673 95.2382 91.6002 95.8672 91.1674 96.2102C90.7346 96.5533 90.1056 96.4805 89.7626 96.0477L91.3299 94.8054ZM86.5764 92.0822C86.2277 91.6539 86.2923 91.0241 86.7206 90.6754C87.1489 90.3267 87.7787 90.3913 88.1274 90.8196L86.5764 92.0822ZM84.9547 86.9687C85.3083 87.3929 85.251 88.0235 84.8268 88.3771C84.4025 88.7307 83.772 88.6734 83.4184 88.2492L84.9547 86.9687ZM80.1685 84.3928C79.8104 83.9723 79.8609 83.3412 80.2814 82.9831C80.7018 82.625 81.3329 82.6755 81.6911 83.0959L80.1685 84.3928ZM78.3913 79.2601C78.7534 79.677 78.709 80.3086 78.292 80.6708C77.8751 81.0329 77.2435 80.9885 76.8813 80.5715L78.3913 79.2601ZM73.5887 76.8143C73.2229 76.4005 73.2618 75.7685 73.6756 75.4027C74.0894 75.037 74.7214 75.0759 75.0872 75.4897L73.5887 76.8143ZM71.6973 71.686C72.0664 72.0969 72.0325 72.7291 71.6216 73.0982C71.2108 73.4673 70.5785 73.4334 70.2095 73.0225L71.6973 71.686ZM66.8582 69.319C66.4863 68.9108 66.5156 68.2783 66.9238 67.9063C67.3321 67.5343 67.9645 67.5637 68.3365 67.9719L66.8582 69.319ZM64.932 64.2604C65.3066 64.6662 65.2813 65.2989 64.8755 65.6735C64.4697 66.0481 63.8371 66.0229 63.4625 65.6171L64.932 64.2604ZM59.9939 61.8826C59.6169 61.479 59.6384 60.8462 60.042 60.4692C60.4455 60.0922 61.0783 60.1137 61.4554 60.5172L59.9939 61.8826ZM58.0473 56.8885C58.4264 57.2901 58.4082 57.923 58.0066 58.3022C57.605 58.6813 56.9721 58.6631 56.593 58.2615L58.0473 56.8885ZM53.1251 54.6056C52.7441 54.2058 52.7593 53.5728 53.1591 53.1918C53.5589 52.8108 54.1919 52.826 54.5729 53.2258L53.1251 54.6056ZM51.0537 49.5491C51.4364 49.9473 51.4239 50.5803 51.0257 50.963C50.6275 51.3458 49.9945 51.3332 49.6118 50.935L51.0537 49.5491ZM46.1548 47.3521C45.7706 46.9554 45.7808 46.3223 46.1776 45.9381C46.5743 45.5539 47.2074 45.5641 47.5916 45.9608L46.1548 47.3521ZM44.0716 42.3382C44.4571 42.7337 44.449 43.3668 44.0536 43.7523C43.6581 44.1378 43.025 44.1298 42.6395 43.7343L44.0716 42.3382ZM39.0879 40.1022C38.7012 39.7079 38.7074 39.0747 39.1017 38.6881C39.496 38.3014 40.1292 38.3075 40.5158 38.7019L39.0879 40.1022ZM37.02 35.1463C37.4077 35.5396 37.4031 36.1728 37.0098 36.5605C36.6164 36.9482 35.9833 36.9436 35.5956 36.5503L37.02 35.1463ZM32.052 32.9633C31.6635 32.5709 31.6666 31.9377 32.0591 31.5491C32.4516 31.1606 33.0847 31.1637 33.4733 31.5562L32.052 32.9633ZM29.8838 27.9378C30.2732 28.3295 30.2712 28.9627 29.8795 29.352C29.4878 29.7414 28.8546 29.7394 28.4653 29.3477L29.8838 27.9378ZM24.954 25.8204C24.564 25.4293 24.565 24.7961 24.9561 24.4062C25.3472 24.0162 25.9804 24.0172 26.3703 24.4083L24.954 25.8204ZM22.8122 20.8443C23.2026 21.2349 23.2025 21.8681 22.8119 22.2585C22.4213 22.649 21.7881 22.6489 21.3977 22.2583L22.8122 20.8443ZM17.7974 18.6605C17.4065 18.2704 17.4059 17.6372 17.7961 17.2463C18.1863 16.8555 18.8195 16.8549 19.2103 17.2451L17.7974 18.6605ZM15.6713 13.7152C16.0625 14.1051 16.0636 14.7383 15.6737 15.1294C15.2838 15.5206 14.6507 15.5217 14.2595 15.1318L15.6713 13.7152ZM10.7028 11.5891C10.3114 11.1995 10.31 10.5663 10.6997 10.1749C11.0893 9.78354 11.7225 9.78212 12.1139 10.1718L10.7028 11.5891ZM8.518 6.59335C8.90953 6.98286 8.91118 7.61602 8.52167 8.00756C8.13216 8.39909 7.49899 8.40073 7.10746 8.01122L8.518 6.59335ZM23.3895 324.209C24.0751 323.679 24.757 323.15 25.4352 322.623L26.6632 324.201C25.9834 324.73 25.2998 325.26 24.6125 325.791L23.3895 324.209ZM29.4596 319.471C30.7861 318.425 32.0979 317.384 33.3949 316.347L34.6437 317.909C33.3432 318.949 32.0279 319.993 30.6979 321.041L29.4596 319.471ZM37.2416 313.25C38.5655 312.176 39.8733 311.107 41.1653 310.043L42.4368 311.587C41.1408 312.654 39.829 313.726 38.5013 314.803L37.2416 313.25ZM45.0832 306.79C46.3726 305.711 47.6454 304.637 48.9017 303.567L50.1982 305.09C48.9376 306.163 47.6606 307.241 46.3671 308.324L45.0832 306.79ZM52.63 300.364C53.9402 299.229 55.2315 298.099 56.5042 296.975L57.8286 298.473C56.551 299.602 55.2547 300.736 53.9398 301.876L52.63 300.364ZM60.2665 293.616C61.502 292.502 62.7189 291.393 63.9175 290.289L65.2724 291.761C64.0686 292.869 62.8465 293.983 61.6059 295.102L60.2665 293.616ZM67.6257 286.835C68.8698 285.663 70.0928 284.496 71.295 283.335L72.6845 284.773C71.4763 285.94 70.2473 287.113 68.9974 288.291L67.6257 286.835ZM74.8391 279.868C76.0443 278.673 77.2272 277.485 78.3879 276.302L79.8153 277.703C78.648 278.893 77.4585 280.088 76.2469 281.288L74.8391 279.868ZM81.9165 272.653C83.0692 271.442 84.1983 270.238 85.3042 269.039L86.7742 270.395C85.661 271.602 84.5247 272.814 83.3649 274.032L81.9165 272.653ZM88.692 265.303C89.8276 264.028 90.9365 262.76 92.0189 261.499L93.5369 262.801C92.446 264.072 91.3289 265.35 90.1853 266.633L88.692 265.303ZM95.1874 257.732C96.2833 256.403 97.3496 255.08 98.3865 253.764L99.9574 255.002C98.9111 256.33 97.8356 257.664 96.7307 259.004L95.1874 257.732ZM101.436 249.802C102.446 248.456 103.425 247.118 104.374 245.786L106.003 246.946C105.044 248.292 104.055 249.644 103.035 251.003L101.436 249.802ZM107.253 241.623C108.179 240.243 109.072 238.869 109.932 237.502L111.625 238.568C110.754 239.951 109.85 241.341 108.913 242.738L107.253 241.623ZM112.572 233.152C113.417 231.706 114.224 230.267 114.996 228.835L116.757 229.783C115.974 231.236 115.155 232.695 114.299 234.161L112.572 233.152ZM117.299 224.356C118.038 222.848 118.737 221.347 119.395 219.852L121.225 220.658C120.556 222.178 119.846 223.704 119.095 225.236L117.299 224.356ZM121.313 215.224C121.921 213.66 122.484 212.103 123.004 210.552L124.9 211.188C124.37 212.769 123.796 214.355 123.178 215.948L121.313 215.224ZM124.474 205.772C124.925 204.163 125.329 202.561 125.686 200.964L127.638 201.401C127.273 203.032 126.86 204.669 126.4 206.312L124.474 205.772ZM126.643 196.058C126.916 194.417 127.14 192.782 127.317 191.151L129.305 191.366C129.125 193.035 128.895 194.708 128.616 196.386L126.643 196.058ZM127.71 186.172C127.792 184.513 127.825 182.858 127.811 181.206L129.81 181.188C129.826 182.879 129.792 184.573 129.707 186.271L127.71 186.172ZM127.621 176.23C127.51 174.578 127.352 172.928 127.147 171.278L129.131 171.032C129.341 172.718 129.503 174.406 129.617 176.096L127.621 176.23ZM126.395 166.352C126.103 164.729 125.765 163.106 125.384 161.482L127.331 161.025C127.72 162.682 128.064 164.339 128.364 165.997L126.395 166.352ZM124.119 156.642C123.665 155.064 123.17 153.484 122.635 151.902L124.53 151.261C125.074 152.871 125.578 154.48 126.041 156.089L124.119 156.642ZM120.922 147.175C120.331 145.649 119.704 144.12 119.041 142.588L120.877 141.794C121.55 143.349 122.187 144.902 122.787 146.454L120.922 147.175ZM116.952 137.992C116.249 136.518 115.513 135.04 114.746 133.558L116.523 132.639C117.299 134.139 118.044 135.637 118.757 137.132L116.952 137.992ZM112.351 129.101C111.556 127.674 110.732 126.243 109.88 124.808L111.6 123.787C112.461 125.238 113.294 126.684 114.098 128.128L112.351 129.101ZM107.242 120.491C106.371 119.104 105.474 117.712 104.551 116.315L106.22 115.213C107.151 116.622 108.056 118.026 108.936 119.427L107.242 120.491ZM101.726 112.134C100.789 110.778 99.8295 109.417 98.8472 108.05L100.471 106.883C101.46 108.259 102.428 109.631 103.372 110.998L101.726 112.134ZM95.8801 103.998C94.8859 102.664 93.8709 101.325 92.8356 99.9804L94.4203 98.7603C95.4617 100.113 96.483 101.46 97.4837 102.803L95.8801 103.998ZM89.7626 96.0477C88.7192 94.7315 87.6571 93.4097 86.5764 92.0822L88.1274 90.8196C89.2134 92.1535 90.281 93.482 91.3299 94.8054L89.7626 96.0477ZM83.4184 88.2492C82.3516 86.9693 81.2682 85.6839 80.1685 84.3928L81.6911 83.0959C82.7952 84.3923 83.8832 85.6831 84.9547 86.9687L83.4184 88.2492ZM76.8813 80.5715C75.7984 79.3247 74.7007 78.0724 73.5887 76.8143L75.0872 75.4897C76.2029 76.752 77.3044 78.0087 78.3913 79.2601L76.8813 80.5715ZM70.2095 73.0225C69.1056 71.7937 67.9884 70.5592 66.8582 69.319L68.3365 67.9719C69.4698 69.2155 70.5901 70.4535 71.6973 71.686L70.2095 73.0225ZM63.4625 65.6171C62.3187 64.3782 61.1625 63.1334 59.9939 61.8826L61.4554 60.5172C62.6265 61.7708 63.7855 63.0185 64.932 64.2604L63.4625 65.6171ZM56.593 58.2615C55.4481 57.0487 54.2921 55.8301 53.1251 54.6056L54.5729 53.2258C55.742 54.4525 56.9002 55.6734 58.0473 56.8885L56.593 58.2615ZM49.6118 50.935C48.4693 49.7465 47.317 48.5522 46.1548 47.3521L47.5916 45.9608C48.7553 47.1626 49.9094 48.3586 51.0537 49.5491L49.6118 50.935ZM42.6395 43.7343C41.465 42.5296 40.2811 41.3189 39.0879 40.1022L40.5158 38.7019C41.7103 39.9199 42.8956 41.132 44.0716 42.3382L42.6395 43.7343ZM35.5956 36.5503C34.4229 35.3605 33.2416 34.1649 32.052 32.9633L33.4733 31.5562C34.6639 32.7588 35.8462 33.9554 37.02 35.1463L35.5956 36.5503ZM28.4653 29.3477C27.3024 28.1776 26.1319 27.0019 24.954 25.8204L26.3703 24.4083C27.549 25.5905 28.7202 26.767 29.8838 27.9378L28.4653 29.3477ZM21.3977 22.2583C20.2049 21.065 19.0047 19.8658 17.7974 18.6605L19.2103 17.2451C20.4181 18.4508 21.6188 19.6505 22.8122 20.8443L21.3977 22.2583ZM14.2595 15.1318C13.0805 13.9567 11.8949 12.7759 10.7028 11.5891L12.1139 10.1718C13.3061 11.3587 14.492 12.5398 15.6713 13.7152L14.2595 15.1318ZM7.10746 8.01122C6.5051 7.41199 5.90118 6.81125 5.29568 6.20901L6.70608 4.79099C7.31161 5.39327 7.91559 5.99405 8.518 6.59335L7.10746 8.01122Z" fill="url(#paint0_linear_205_749)"/>
<defs>
<linearGradient id="paint0_linear_205_749" x1="67.4074" y1="5.5" x2="67.4074" y2="325" gradientUnits="userSpaceOnUse">
<stop stop-color="#4C53F4"/>
<stop offset="1" stop-color="#4F75FA"/>
</linearGradient>
</defs>
</svg>
