<svg width="130" height="129" viewBox="0 0 130 129" fill="none" xmlns="http://www.w3.org/2000/svg">
<rect x="6.76443" y="19.1736" width="103" height="104" rx="1.5" transform="rotate(-8 6.76443 19.1736)" stroke="#313239"/>
<rect x="28.1143" y="0.612372" width="104.328" height="104.328" rx="1.5" transform="rotate(15 28.1143 0.612372)" stroke="#313239"/>
<path d="M83.9924 49.356C83.9924 52.1653 83.419 54.602 82.2724 56.666C81.1257 58.73 79.6064 60.4213 77.7144 61.74C75.8224 63.0587 73.701 64.0333 71.3504 64.664V64.922C75.937 65.4953 79.463 66.986 81.9284 69.394C84.3937 71.802 85.6264 75.0413 85.6264 79.112C85.6264 82.6667 84.795 85.8773 83.1324 88.744C81.4697 91.5533 78.8897 93.7893 75.3924 95.452C71.9524 97.0573 67.4804 97.86 61.9764 97.86C58.5364 97.86 55.469 97.5733 52.7744 97C50.0797 96.4267 47.4997 95.5953 45.0344 94.506V83.498C47.557 84.8167 50.137 85.82 52.7744 86.508C55.469 87.196 57.9344 87.54 60.1704 87.54C64.241 87.54 67.0504 86.7373 68.5984 85.132C70.2037 83.5267 71.0064 81.262 71.0064 78.338C71.0064 76.618 70.6337 75.1847 69.8884 74.038C69.143 72.834 67.8244 71.9453 65.9324 71.372C64.0977 70.7413 61.4317 70.426 57.9344 70.426H53.9784V60.45H58.0204C61.2884 60.45 63.811 60.106 65.5884 59.418C67.3657 58.6727 68.5984 57.698 69.2864 56.494C70.0317 55.2327 70.4044 53.7993 70.4044 52.194C70.4044 50.0153 69.8024 48.324 68.5984 47.12C67.3944 45.8587 65.5597 45.228 63.0944 45.228C61.317 45.228 59.6544 45.486 58.1064 46.002C56.5584 46.4607 55.1824 47.034 53.9784 47.722C52.8317 48.41 51.8857 49.0693 51.1404 49.7L45.1204 40.756C46.6684 39.6093 48.3597 38.5773 50.1944 37.66C52.0864 36.7427 54.2077 36.026 56.5584 35.51C58.9664 34.994 61.6897 34.736 64.7284 34.736C70.691 34.736 75.3924 36.026 78.8324 38.606C82.2724 41.1287 83.9924 44.712 83.9924 49.356Z" fill="#313239"/>
</svg>
