<svg width="129" height="129" viewBox="0 0 129 129" fill="none" xmlns="http://www.w3.org/2000/svg">
<rect x="6.26443" y="19.1736" width="103" height="104" rx="1.5" transform="rotate(-8 6.26443 19.1736)" stroke="#313239"/>
<rect x="27.6143" y="0.612372" width="104.328" height="104.328" rx="1.5" transform="rotate(15 27.6143 0.612372)" stroke="#313239"/>
<path d="M87.1044 84.272H80.4824V97H66.8084V84.272H42.9864V75.242L67.6684 35.596H80.4824V74.21H87.1044V84.272ZM66.8084 63.804C66.8084 62.8293 66.8084 61.6827 66.8084 60.364C66.8657 58.988 66.923 57.6407 66.9804 56.322C67.0377 54.946 67.095 53.742 67.1524 52.71C67.2097 51.6207 67.2384 50.8753 67.2384 50.474H66.8944C66.3784 51.6207 65.8624 52.7387 65.3464 53.828C64.8877 54.86 64.343 55.978 63.7124 57.182L55.0264 74.21H66.8084V63.804Z" fill="#313239"/>
</svg>
