<svg width="111" height="78" viewBox="0 0 111 78" fill="none" xmlns="http://www.w3.org/2000/svg">
<path d="M52.322 39.0531C52.322 45.1374 51.8467 50.585 50.896 55.3959C50.0185 60.2068 48.5194 64.3102 46.3988 67.7061C44.2781 71.0313 41.5724 73.5782 38.2817 75.3469C34.991 77.1156 30.9325 78 26.1062 78C20.1098 78 15.1737 76.4435 11.298 73.3306C7.42234 70.2177 4.57041 65.7605 2.74224 59.9592C0.914081 54.1578 0 47.1891 0 39.0531C0 30.8463 0.840955 23.8422 2.52286 18.0408C4.20477 12.2395 6.94702 7.78231 10.7496 4.66938C14.6253 1.55646 19.7442 0 26.1062 0C32.1025 0 37.0386 1.55646 40.9143 4.66938C44.79 7.71156 47.6419 12.1687 49.4701 18.0408C51.3714 23.8422 52.322 30.8463 52.322 39.0531ZM17.66 39.0531C17.66 44.7837 17.8794 49.5946 18.3182 53.4857C18.8301 57.3061 19.7076 60.2068 20.9507 62.1878C22.1939 64.098 23.9124 65.0531 26.1062 65.0531C28.2999 65.0531 29.9819 64.098 31.1519 62.1878C32.395 60.2775 33.2725 57.4122 33.7844 53.5918C34.3694 49.7007 34.6619 44.8544 34.6619 39.0531C34.6619 33.2517 34.3694 28.4408 33.7844 24.6204C33.2725 20.7292 32.395 17.8286 31.1519 15.9184C29.9819 13.9374 28.2999 12.9469 26.1062 12.9469C23.9124 12.9469 22.1939 13.9374 20.9507 15.9184C19.7076 17.8286 18.8301 20.7292 18.3182 24.6204C17.8794 28.4408 17.66 33.2517 17.66 39.0531Z" fill="#A3B1F9"/>
<path d="M88.2942 28.5469C92.6087 28.5469 96.4478 29.4313 99.8116 31.2C103.249 32.9687 105.954 35.551 107.929 38.9469C109.976 42.3429 111 46.5524 111 51.5755C111 57.0231 109.903 61.7279 107.709 65.6898C105.516 69.6517 102.225 72.6939 97.8372 74.8163C93.4496 76.9388 87.9652 78 81.3838 78C77.3618 78 73.5958 77.6463 70.0857 76.9388C66.6488 76.2313 63.614 75.2054 60.9815 73.8612V60.0653C63.5409 61.4095 66.6122 62.5769 70.1954 63.5673C73.8517 64.4871 77.2156 64.9469 80.2869 64.9469C83.0657 64.9469 85.4057 64.5224 87.307 63.6735C89.2083 62.8245 90.6343 61.5156 91.5849 59.7469C92.6087 57.9782 93.1206 55.7143 93.1206 52.9551C93.1206 49.2054 92.0237 46.3755 89.8299 44.4653C87.6361 42.4844 84.2723 41.4939 79.7384 41.4939C77.8371 41.4939 75.9358 41.7061 74.0346 42.1306C72.1333 42.4844 70.4879 42.8381 69.0985 43.1918L62.2978 39.7959L65.1497 1.16734H106.064V14.751H80.3966L79.19 29.6082C80.36 29.3959 81.53 29.1837 82.7001 28.9714C83.9432 28.6884 85.8079 28.5469 88.2942 28.5469Z" fill="#A3B1F9"/>
</svg>
