<svg width="111" height="78" viewBox="0 0 111 78" fill="none" xmlns="http://www.w3.org/2000/svg">
<path d="M51.6584 39.0531C51.6584 45.1374 51.1891 50.585 50.2505 55.3959C49.3841 60.2068 47.904 64.3102 45.8103 67.7061C43.7165 71.0313 41.0451 73.5782 37.7962 75.3469C34.5472 77.1156 30.5402 78 25.775 78C19.8547 78 14.9813 76.4435 11.1547 73.3306C7.3282 70.2177 4.51244 65.7605 2.70746 59.9592C0.902488 54.1578 0 47.1891 0 39.0531C0 30.8463 0.830288 23.8422 2.49086 18.0408C4.15144 12.2395 6.8589 7.78231 10.6133 4.66938C14.4398 1.55646 19.4937 0 25.775 0C31.6954 0 36.5688 1.55646 40.3953 4.66938C44.2219 7.71156 47.0376 12.1687 48.8426 18.0408C50.7198 23.8422 51.6584 30.8463 51.6584 39.0531ZM17.4361 39.0531C17.4361 44.7837 17.6527 49.5946 18.0858 53.4857C18.5912 57.3061 19.4576 60.2068 20.685 62.1878C21.9124 64.098 23.6091 65.0531 25.775 65.0531C27.941 65.0531 29.6016 64.098 30.7568 62.1878C31.9841 60.2776 32.8505 57.4122 33.3559 53.5918C33.9335 49.7007 34.2223 44.8544 34.2223 39.0531C34.2223 33.2517 33.9335 28.4408 33.3559 24.6204C32.8505 20.7292 31.9841 17.8286 30.7568 15.9184C29.6016 13.9374 27.941 12.9469 25.775 12.9469C23.6091 12.9469 21.9124 13.9374 20.685 15.9184C19.4576 17.8286 18.5912 20.7292 18.0858 24.6204C17.6527 28.4408 17.4361 33.2517 17.4361 39.0531Z" fill="#A3B1F9"/>
<path d="M58.8001 44.7837C58.8001 40.3973 59.0889 36.0816 59.6665 31.8367C60.3163 27.5918 61.3993 23.5946 62.9155 19.8449C64.5039 16.0245 66.6698 12.6639 69.4134 9.76327C72.2292 6.79184 75.803 4.49252 80.1349 2.86531C84.5391 1.16734 89.8457 0.318363 96.0548 0.318363C97.4988 0.318363 99.1955 0.389113 101.145 0.530612C103.166 0.601359 104.827 0.77823 106.127 1.06122V13.902C104.755 13.5483 103.275 13.3007 101.686 13.1592C100.098 12.9469 98.293 12.8408 96.2714 12.8408C92.3005 12.8408 88.9432 13.4068 86.1997 14.5388C83.4561 15.6707 81.254 17.298 79.5935 19.4204C78.0051 21.5429 76.8138 24.0544 76.0196 26.9551C75.2976 29.785 74.8644 32.9687 74.72 36.5061H75.2615C76.2001 34.8082 77.3192 33.3224 78.6188 32.049C79.9905 30.7048 81.6511 29.6435 83.6005 28.8653C85.5499 28.0871 87.8241 27.698 90.4233 27.698C94.683 27.698 98.3291 28.6531 101.361 30.5633C104.466 32.4027 106.849 35.1265 108.509 38.7347C110.17 42.2721 111 46.5878 111 51.6816C111 57.1293 109.953 61.834 107.859 65.7959C105.838 69.7578 102.95 72.8 99.1955 74.9224C95.4411 76.9742 90.9648 78 85.7665 78C82.0121 78 78.4744 77.3279 75.1532 75.9837C71.9043 74.6395 69.0524 72.6231 66.5976 69.9347C64.1429 67.1755 62.2296 63.7088 60.8578 59.5347C59.486 55.3605 58.8001 50.4435 58.8001 44.7837ZM85.4416 65.1592C87.9685 65.1592 90.0262 64.098 91.6146 61.9755C93.203 59.7823 93.9972 56.4218 93.9972 51.8939C93.9972 48.215 93.3113 45.3143 91.9395 43.1918C90.5677 41.0694 88.4739 40.0082 85.6582 40.0082C83.7088 40.0082 82.0121 40.5388 80.5681 41.6C79.1964 42.5905 78.1134 43.8993 77.3192 45.5265C76.5972 47.1537 76.2362 48.8163 76.2362 50.5143C76.2362 52.283 76.4167 54.0517 76.7777 55.8204C77.1387 57.5184 77.6802 59.0748 78.4022 60.4898C79.1964 61.9048 80.171 63.0367 81.3262 63.8857C82.4814 64.7347 83.8532 65.1592 85.4416 65.1592Z" fill="#A3B1F9"/>
</svg>
