<svg width="84" height="54" viewBox="0 0 84 54" fill="none" xmlns="http://www.w3.org/2000/svg">
<g clip-path="url(#clip0_205_851)">
<path d="M83.8651 20.3614C83.8651 38.2727 71.7234 48.9309 64.1537 53.8371C63.1931 54.4593 62.1567 53.1664 62.8911 52.2611C65.2504 49.3507 68.0047 45.19 69.8626 39.9449C68.1801 40.4517 66.4037 40.7218 64.5688 40.7218C53.9121 40.7218 45.2725 31.6063 45.2725 20.3604C45.2725 9.11448 53.9121 0 64.5688 0C75.2255 0 83.8651 9.11549 83.8651 20.3614Z" fill="url(#paint0_linear_205_851)"/>
<path d="M39.4007 20.3614C39.4007 38.2727 27.2591 48.9309 19.6893 53.8371C18.7287 54.4593 17.6924 53.1664 18.4267 52.2611C20.7861 49.3507 23.5403 45.19 25.3983 39.9449C23.7158 40.4517 21.9393 40.7218 20.1044 40.7218C9.44775 40.7218 0.809082 31.6063 0.809082 20.3614C0.809082 9.1165 9.44775 0 20.1054 0C30.763 0 39.4017 9.11549 39.4017 20.3614H39.4007Z" fill="url(#paint1_linear_205_851)"/>
</g>
<defs>
<linearGradient id="paint0_linear_205_851" x1="64.5688" y1="0" x2="64.5688" y2="54.0004" gradientUnits="userSpaceOnUse">
<stop stop-color="#4C53F4"/>
<stop offset="1" stop-color="#4F75FA"/>
</linearGradient>
<linearGradient id="paint1_linear_205_851" x1="20.1054" y1="0" x2="20.1054" y2="54.0004" gradientUnits="userSpaceOnUse">
<stop stop-color="#4C53F4"/>
<stop offset="1" stop-color="#4F75FA"/>
</linearGradient>
<clipPath id="clip0_205_851">
<rect width="83.0562" height="54" fill="white" transform="translate(0.809082)"/>
</clipPath>
</defs>
</svg>
